<svg width="547" height="375" viewBox="0 0 547 375" fill="none" xmlns="http://www.w3.org/2000/svg">
<path d="M456.586 311.719C454.972 311.719 453.336 311.574 451.696 311.266L77.5898 241.069C65.1191 238.728 56.0669 227.82 56.0669 215.127V187.482C56.0669 185.515 55.1916 183.665 53.6719 182.413L26.7234 160.26C10.6432 147.043 5.94174 124.827 15.2933 106.229L24.0975 88.7177C37.663 61.7406 68.5803 48.2235 97.5902 56.5772L188.677 82.8045C195.229 84.689 200.549 89.3563 203.275 95.6002C206 101.85 205.801 108.918 202.73 115.005L189.644 140.933C185.182 149.771 175.602 154.701 165.82 153.201L88.5209 141.332L124.06 188.623C126.05 191.269 128.935 193.074 132.183 193.709L186.855 204.378V185.39C186.855 175.707 191.038 166.498 198.331 160.123L258.569 107.492C273.229 94.685 295.034 95.874 308.215 110.206L420.893 232.746V208.643C420.893 207.215 420.198 205.858 419.034 205.028L395.002 187.793C382.058 178.507 378.697 160.765 387.35 147.39C395.801 134.327 412.551 129.959 426.305 137.24L478.169 164.691C488.652 170.236 493.086 183.069 488.27 193.903L478.066 216.866C477.679 217.741 478.001 218.773 478.822 219.267L485.185 223.096C496.114 229.676 500.761 243.102 496.245 255.025L481.208 294.701C477.265 305.096 467.366 311.719 456.586 311.719ZM80.2242 73.949C64.3122 73.949 49.2499 82.8301 41.8114 97.6245L33.0072 115.136C27.8467 125.394 30.4412 137.657 39.3138 144.947L66.2595 167.103C72.3808 172.135 75.8905 179.562 75.8905 187.485V215.13C75.8905 218.283 78.1429 221.003 81.2449 221.582L455.354 291.781C458.456 292.374 461.541 290.638 462.667 287.676L477.704 248C478.825 245.043 477.67 241.716 474.964 240.082L468.601 236.256C459.22 230.611 455.5 218.816 459.948 208.814L470.152 185.852C470.753 184.5 470.2 182.904 468.894 182.214L417.033 154.766C412.425 152.329 406.823 153.791 404 158.162C401.104 162.635 402.227 168.571 406.558 171.679L430.593 188.917C436.936 193.47 440.723 200.846 440.723 208.646V246.626C440.723 252.613 437.119 257.882 431.542 260.057C425.965 262.23 419.744 260.793 415.693 256.382L293.617 123.627C287.773 117.277 278.11 116.741 271.61 122.423L211.375 175.052C208.39 177.658 206.679 181.427 206.679 185.39V204.649C206.679 210.528 204.076 216.045 199.54 219.78C195.007 223.52 189.09 225.023 183.323 223.891L128.382 213.168C120.313 211.591 113.149 207.109 108.205 200.532L68.4805 147.678C64.3122 142.133 63.9188 134.7 67.4827 128.747C71.0437 122.794 77.7808 119.632 84.6377 120.676L168.822 133.6C170.102 133.799 171.357 133.152 171.938 131.994L185.025 106.064C185.575 104.975 185.304 104.005 185.096 103.526C184.888 103.044 184.358 102.186 183.186 101.85L92.1019 75.6283C88.1588 74.4935 84.1644 73.949 80.2242 73.949Z" fill="url(#paint0_linear_272_1219)"/>
<path d="M456.572 302.427C455.508 302.427 454.436 302.327 453.379 302.125L79.3032 231.934C71.2232 230.422 65.3585 223.352 65.3585 215.126V187.482C65.3585 182.721 63.2487 178.256 59.5708 175.234L32.6222 153.078C19.9206 142.643 16.2085 125.089 23.5957 110.4L32.3999 92.8884C41.5433 74.707 59.8673 63.4109 80.2213 63.4109C85.2193 63.4109 90.1973 64.1151 95.0128 65.5007L186.1 91.7251C189.989 92.8485 193.145 95.6169 194.758 99.3291C196.369 103.021 196.25 107.209 194.428 110.813L181.344 136.738C178.71 141.939 173.056 144.921 167.188 144L83.041 131.085C80.4665 130.671 77.8691 131.894 76.5234 134.152C75.1692 136.41 75.3174 139.236 76.8998 141.343L116.627 194.196C119.997 198.684 124.887 201.749 130.398 202.821L185.338 213.541C188.041 214.077 190.761 213.359 192.834 211.645C194.935 209.915 196.141 207.36 196.141 204.64V185.381C196.141 178.376 199.166 171.716 204.441 167.111L264.679 114.483C269.497 110.269 275.65 107.948 282.002 107.948C289.318 107.948 296.377 111.061 301.367 116.484L423.439 249.243C424.528 250.434 426.171 250.831 427.713 250.235C429.235 249.639 430.182 248.253 430.182 246.614V208.634C430.182 204.215 428.038 200.038 424.446 197.461L400.414 180.229C391.51 173.842 389.195 161.628 395.148 152.428C398.945 146.555 405.369 143.045 412.331 143.045C415.659 143.045 418.986 143.875 421.954 145.446L473.815 172.896C479.994 176.169 482.611 183.736 479.771 190.119L469.567 213.082C467.278 218.237 469.194 224.313 474.026 227.224L480.387 231.05C487.463 235.309 490.477 244.002 487.552 251.723L472.515 291.399C470.015 297.996 463.605 302.427 456.572 302.427ZM80.2242 64.654C60.3406 64.654 42.4414 75.6877 33.5061 93.4472L24.7019 110.959C17.577 125.129 21.1608 142.056 33.412 152.126L60.3577 174.282C64.3236 177.54 66.5988 182.353 66.5988 187.488V215.132C66.5988 222.762 72.0387 229.319 79.5313 230.719L453.609 300.91C454.59 301.096 455.588 301.192 456.575 301.192C463.098 301.192 469.04 297.084 471.36 290.971L486.397 251.293C489.108 244.131 486.314 236.07 479.751 232.119L473.393 228.293C468.025 225.06 465.895 218.311 468.441 212.589L478.645 189.623C481.22 183.833 478.845 176.967 473.242 173.996L421.381 146.549C418.592 145.072 415.465 144.294 412.34 144.294C405.797 144.294 399.761 147.59 396.194 153.112C390.6 161.757 392.773 173.229 401.141 179.231L425.175 196.466C429.093 199.274 431.428 203.83 431.428 208.646V246.625C431.428 248.784 430.179 250.611 428.169 251.401C426.151 252.173 423.967 251.655 422.535 250.092L300.46 117.337C295.704 112.168 288.979 109.2 282.008 109.2C275.955 109.2 270.093 111.409 265.5 115.426L205.265 168.055C200.258 172.428 197.39 178.749 197.39 185.395V204.654C197.39 207.748 196.019 210.647 193.629 212.615C191.272 214.562 188.164 215.38 185.105 214.77L130.164 204.053C124.353 202.918 119.196 199.69 115.64 194.955L75.9133 142.098C74.0259 139.589 73.8491 136.222 75.4628 133.525C76.8656 131.184 79.3261 129.782 82.0489 129.782C82.448 129.782 82.8557 129.81 83.2378 129.87L167.382 142.785C172.737 143.629 177.851 140.912 180.241 136.188L193.324 110.263C194.978 106.99 195.089 103.187 193.624 99.8309C192.158 96.458 189.293 93.9433 185.76 92.9255L94.6735 66.7039C89.9692 65.3411 85.1052 64.654 80.2242 64.654Z" fill="white"/>
<path d="M191.42 73.2762C200.817 75.9848 208.449 82.6763 212.358 91.6344C216.267 100.598 215.982 110.742 211.577 119.47L198.491 145.4C198.003 146.361 197.473 147.296 196.905 148.197L252.043 100.025C260.399 92.7235 271.045 88.7007 282.016 88.7007C294.658 88.7007 306.866 94.0949 315.508 103.492L345.656 136.28C353.026 134.067 361.074 131.866 369.904 129.694C549.17 85.4989 369.072 60.5432 277.791 62.2795C186.51 64.0158 339.226 8.12864 229.411 15.8323C186.972 18.8117 145.486 32.8391 112.826 50.647L191.42 73.2762Z" fill="url(#paint1_linear_272_1219)"/>
<path d="M494.54 287.479L490.474 298.211C485.168 312.221 471.549 321.636 456.586 321.636C454.34 321.636 452.079 321.425 449.869 321.011L75.7594 250.812C58.6044 247.593 46.1508 232.584 46.1508 215.127V205.864C30.4384 214.568 9.80785 229.4 1.54537 250.372C-12.5818 286.239 154.293 275.97 217.077 298.867C279.861 321.761 168.335 349.026 172.466 366.372C176.597 383.721 440.954 374.632 526.042 341.593C568.041 325.282 539.388 305.447 494.54 287.479Z" fill="url(#paint2_linear_272_1219)"/>
<path d="M134.079 183.981L176.939 192.341V185.39C176.939 175.699 180.175 166.367 186.008 158.817C181.062 161.757 175.325 163.382 169.307 163.382C167.645 163.382 165.968 163.254 164.317 163.003L111.059 154.826L131.986 182.667C132.496 183.348 133.238 183.813 134.079 183.981Z" fill="url(#paint3_linear_272_1219)"/>
<path d="M195.517 232.932C199.266 231.812 202.787 229.947 205.846 227.424C212.675 221.801 216.592 213.499 216.592 204.646V185.387C216.592 184.284 217.068 183.24 217.898 182.513L278.136 129.888C279.542 128.653 281.016 128.4 282.005 128.4C283.641 128.4 285.175 129.087 286.327 130.338L408.394 263.088C412.993 268.095 419.505 270.966 426.262 270.966C429.301 270.966 432.283 270.401 435.137 269.289C444.552 265.623 450.633 256.727 450.633 246.623V229.864C453.153 235.886 457.538 241.169 463.489 244.75L467.437 247.122L454.402 281.518L195.517 232.932ZM85.8038 212.35C85.8038 212.35 85.8038 187.309 85.8038 187.223L100.282 206.491C103.549 210.839 107.572 214.486 112.114 217.285L85.8038 212.35ZM450.502 205.684C449.638 195.814 444.495 186.687 436.369 180.857L412.329 163.616L458.397 187.888L450.884 204.783C450.753 205.083 450.624 205.382 450.502 205.684ZM45.6062 137.289C40.3402 132.958 38.8006 125.68 41.8627 119.587L50.6669 102.078C56.3178 90.8449 67.6423 83.8625 80.2242 83.8625C83.3091 83.8625 86.3826 84.2988 89.362 85.1541L172.412 109.066L165.358 123.037L86.1459 110.874C84.7803 110.669 83.406 110.566 82.0461 110.566C72.6489 110.566 63.8104 115.581 58.9807 123.655C54.7867 130.666 54.054 138.969 56.6685 146.376L45.6062 137.289Z" fill="url(#paint4_linear_272_1219)"/>
<path d="M334.916 70.4651H332.994V81.65H334.916V70.4651Z" fill="#A97C50"/>
<path d="M333.955 36.3403L324.059 72.6405H333.955H343.854L333.955 36.3403Z" fill="url(#paint5_linear_272_1219)"/>
<path d="M346.559 73.5134H345.16V81.6533H346.559V73.5134Z" fill="#A97C50"/>
<path d="M345.858 48.6858L338.659 75.0955H345.858H353.06L345.858 48.6858Z" fill="url(#paint6_linear_272_1219)"/>
<path d="M141.885 38.1821H139.963V49.3699H141.885V38.1821Z" fill="#A97C50"/>
<path d="M140.924 4.06006L131.025 40.3573H140.924H150.823L140.924 4.06006Z" fill="url(#paint7_linear_272_1219)"/>
<path d="M153.529 41.2302H152.129V49.3701H153.529V41.2302Z" fill="#A97C50"/>
<path d="M152.827 16.4056L145.628 42.8126H152.827H160.029L152.827 16.4056Z" fill="url(#paint8_linear_272_1219)"/>
<path d="M247.658 212.156H245.348V225.596H247.658V212.156Z" fill="#A97C50"/>
<path d="M246.503 171.154L234.611 214.767H246.503H258.392L246.503 171.154Z" fill="url(#paint9_linear_272_1219)"/>
<path d="M261.645 215.82H259.966V225.599H261.645V215.82Z" fill="#A97C50"/>
<path d="M260.804 185.995L252.154 217.722H260.804H269.457L260.804 185.995Z" fill="url(#paint10_linear_272_1219)"/>
<path d="M514.076 300.628H511.743V314.205H514.076V300.628Z" fill="#A97C50"/>
<path d="M512.909 259.219L500.901 303.265H512.909H524.921L512.909 259.219Z" fill="url(#paint11_linear_272_1219)"/>
<path d="M528.206 304.325H526.506V314.204H528.206V304.325Z" fill="#A97C50"/>
<path d="M527.356 274.201L518.617 306.244H527.356H536.095L527.356 274.201Z" fill="url(#paint12_linear_272_1219)"/>
<path d="M401.891 88.4956H399.644V101.568H401.891V88.4956Z" fill="#A97C50"/>
<path d="M400.767 48.6199L389.203 91.0357H400.767H412.331L400.767 48.6199Z" fill="url(#paint13_linear_272_1219)"/>
<path d="M415.496 92.0593H413.862V101.568H415.496V92.0593Z" fill="#A97C50"/>
<path d="M414.678 63.0491L406.264 93.9065H414.678H423.091L414.678 63.0491Z" fill="url(#paint14_linear_272_1219)"/>
<path d="M375.706 92.0593H374.072V101.568H375.706V92.0593Z" fill="#A97C50"/>
<path d="M374.891 63.0491L366.474 93.9065H374.891H383.304L374.891 63.0491Z" fill="url(#paint15_linear_272_1219)"/>
<path d="M276.451 343.703H273.791V359.193H276.451V343.703Z" fill="#A97C50"/>
<path d="M275.122 296.454L261.417 346.713H275.122H288.827L275.122 296.454Z" fill="url(#paint16_linear_272_1219)"/>
<path d="M292.574 347.922H290.638V359.19H292.574V347.922Z" fill="#A97C50"/>
<path d="M291.604 313.55L281.634 350.112H291.604H301.575L291.604 313.55Z" fill="url(#paint17_linear_272_1219)"/>
<path d="M245.431 347.922H243.492V359.19H245.431V347.922Z" fill="#A97C50"/>
<path d="M244.462 313.55L234.489 350.112H244.462H254.432L244.462 313.55Z" fill="url(#paint18_linear_272_1219)"/>
<path d="M207.395 24.4453H205.077V37.9453H207.395V24.4453Z" fill="#A97C50"/>
<path d="M217.008 14.5548C217.008 22.592 212.187 29.1096 206.237 29.1096C200.29 29.1096 195.468 22.592 195.468 14.5548C195.468 6.51752 200.29 -0.000121136 206.237 -0.000121136C212.184 -0.00297223 217.008 6.51752 217.008 14.5548Z" fill="url(#paint19_linear_272_1219)"/>
<path d="M221.305 27.6443H219.534V37.9453H221.305V27.6443Z" fill="#A97C50"/>
<path d="M228.641 20.0948C228.641 26.2304 224.96 31.2027 220.421 31.2027C215.882 31.2027 212.201 26.2332 212.201 20.0948C212.201 13.9621 215.882 8.98694 220.421 8.98694C224.96 8.98694 228.641 13.9621 228.641 20.0948Z" fill="url(#paint20_linear_272_1219)"/>
<path d="M181.515 27.6443H179.745V37.9453H181.515V27.6443Z" fill="#A97C50"/>
<path d="M188.848 20.0948C188.848 26.2304 185.17 31.2027 180.628 31.2027C176.089 31.2027 172.412 26.2332 172.412 20.0948C172.412 13.9621 176.089 8.98694 180.628 8.98694C185.17 8.98694 188.848 13.9621 188.848 20.0948Z" fill="url(#paint21_linear_272_1219)"/>
<path d="M373.611 338.379H371.293V351.876H373.611V338.379Z" fill="#A97C50"/>
<path d="M383.222 328.486C383.222 336.526 378.401 343.044 372.453 343.044C366.506 343.044 361.682 336.526 361.682 328.486C361.682 320.449 366.503 313.931 372.453 313.931C378.401 313.931 383.222 320.449 383.222 328.486Z" fill="url(#paint22_linear_272_1219)"/>
<path d="M387.521 341.575H385.751V351.876H387.521V341.575Z" fill="#A97C50"/>
<path d="M386.634 345.136C391.174 345.136 394.854 340.162 394.854 334.026C394.854 327.889 391.174 322.915 386.634 322.915C382.095 322.915 378.415 327.889 378.415 334.026C378.415 340.162 382.095 345.136 386.634 345.136Z" fill="url(#paint23_linear_272_1219)"/>
<path d="M347.731 341.575H345.961V351.876H347.731V341.575Z" fill="#A97C50"/>
<path d="M355.064 334.026C355.064 340.162 351.384 345.137 346.845 345.137C342.306 345.137 338.625 340.164 338.625 334.026C338.625 327.893 342.306 322.918 346.845 322.918C351.384 322.918 355.064 327.893 355.064 334.026Z" fill="url(#paint24_linear_272_1219)"/>
<path d="M326.091 228.441H323.771V241.936H326.091V228.441Z" fill="#A97C50"/>
<path d="M335.702 218.551C335.702 226.591 330.881 233.106 324.931 233.106C318.984 233.106 314.162 226.591 314.162 218.551C314.162 210.514 318.984 203.999 324.931 203.999C330.881 203.996 335.702 210.511 335.702 218.551Z" fill="url(#paint25_linear_272_1219)"/>
<path d="M340.002 231.64H338.231V241.936H340.002V231.64Z" fill="#A97C50"/>
<path d="M347.335 224.091C347.335 230.224 343.654 235.199 339.115 235.199C334.576 235.199 330.896 230.224 330.896 224.091C330.896 217.955 334.576 212.983 339.115 212.983C343.657 212.983 347.335 217.955 347.335 224.091Z" fill="url(#paint26_linear_272_1219)"/>
<path d="M300.209 231.64H298.439V241.936H300.209V231.64Z" fill="#A97C50"/>
<path d="M307.545 224.091C307.545 230.224 303.864 235.199 299.325 235.199C294.786 235.199 291.108 230.224 291.108 224.091C291.108 217.955 294.789 212.983 299.325 212.983C303.864 212.983 307.545 217.955 307.545 224.091Z" fill="url(#paint27_linear_272_1219)"/>
<path d="M229.767 79.4028H228.27V88.1187H229.767V79.4028Z" fill="#A97C50"/>
<path d="M229.02 52.8108L221.305 81.0965H229.02H236.732L229.02 52.8108Z" fill="url(#paint28_linear_272_1219)"/>
<path d="M288.061 171.154H286.564V179.873H288.061V171.154Z" fill="#A97C50"/>
<path d="M287.314 144.568L279.601 172.851H287.314H295.026L287.314 144.568Z" fill="url(#paint29_linear_272_1219)"/>
<path d="M56.6485 258.23H55.1516V266.945H56.6485V258.23Z" fill="#A97C50"/>
<path d="M55.8986 231.64L48.1864 259.923H55.8986H63.6108L55.8986 231.64Z" fill="url(#paint30_linear_272_1219)"/>
<path d="M15.912 236.975H13.6539V250.118H15.912V236.975Z" fill="#A97C50"/>
<path d="M25.275 227.338C25.275 235.17 20.5793 241.516 14.783 241.516C8.98957 241.516 4.29381 235.17 4.29381 227.338C4.29381 219.506 8.98957 213.159 14.783 213.159C20.5764 213.159 25.275 219.506 25.275 227.338Z" fill="url(#paint31_linear_272_1219)"/>
<path d="M29.4605 240.085H27.7356V250.118H29.4605V240.085Z" fill="#A97C50"/>
<path d="M36.6053 232.732C36.6053 238.708 33.0215 243.555 28.5966 243.555C24.1774 243.555 20.5907 238.708 20.5907 232.732C20.5907 226.756 24.1745 221.912 28.5966 221.912C33.0186 221.912 36.6053 226.759 36.6053 232.732Z" fill="url(#paint32_linear_272_1219)"/>
<path d="M269.697 64.5942H267.746V75.9416H269.697V64.5942Z" fill="#A97C50"/>
<path d="M277.777 56.2752C277.777 63.0351 273.722 68.5149 268.722 68.5149C263.718 68.5149 259.664 63.0351 259.664 56.2752C259.664 49.5152 263.718 44.0354 268.722 44.0354C273.722 44.0354 277.777 49.5152 277.777 56.2752Z" fill="url(#paint33_linear_272_1219)"/>
<path d="M281.392 67.2808H279.904V75.9424H281.392V67.2808Z" fill="#A97C50"/>
<path d="M287.559 60.9342C287.559 66.0918 284.465 70.2715 280.648 70.2715C276.83 70.2715 273.737 66.089 273.737 60.9342C273.737 55.7709 276.83 51.594 280.648 51.594C284.462 51.594 287.559 55.7737 287.559 60.9342Z" fill="url(#paint34_linear_272_1219)"/>
<path d="M80.3497 93.9065H78.6561V103.757H80.3497V93.9065Z" fill="#A97C50"/>
<path d="M87.3634 86.6847C87.3634 92.5551 83.8451 97.3136 79.5029 97.3136C75.1607 97.3136 71.6396 92.5551 71.6396 86.6847C71.6396 80.8171 75.1578 76.0586 79.5029 76.0586C83.8451 76.0557 87.3634 80.8171 87.3634 86.6847Z" fill="url(#paint35_linear_272_1219)"/>
<path d="M90.5053 96.2356H89.2109V103.757H90.5053V96.2356Z" fill="#A97C50"/>
<path d="M95.8568 90.728C95.8568 95.207 93.171 98.8393 89.8581 98.8393C86.5422 98.8393 83.8565 95.2099 83.8565 90.728C83.8565 86.2518 86.5422 82.6194 89.8581 82.6194C93.171 82.6194 95.8568 86.2489 95.8568 90.728Z" fill="url(#paint36_linear_272_1219)"/>
<path d="M142.227 169.25H140.533V179.103H142.227V169.25Z" fill="#A97C50"/>
<path d="M149.246 162.025C149.246 167.896 145.725 172.654 141.383 172.654C137.041 172.654 133.52 167.896 133.52 162.025C133.52 156.158 137.041 151.399 141.383 151.399C145.722 151.402 149.246 156.16 149.246 162.025Z" fill="url(#paint37_linear_272_1219)"/>
<path d="M152.383 171.583H151.091V179.104H152.383V171.583Z" fill="#A97C50"/>
<path d="M157.737 166.071C157.737 170.547 155.051 174.182 151.738 174.182C148.425 174.182 145.74 170.55 145.74 166.071C145.74 161.594 148.425 157.962 151.738 157.962C155.048 157.965 157.737 161.594 157.737 166.071Z" fill="url(#paint38_linear_272_1219)"/>
<path d="M366.629 272.946L362.129 296.758L368.625 297.986L373.126 274.173L366.629 272.946Z" fill="white"/>
<path d="M364.704 294.969L364.296 297.13L362.129 296.725L362.54 294.558L364.704 294.969Z" fill="url(#paint39_linear_272_1219)"/>
<path d="M369.035 295.787L368.624 297.948L366.46 297.544L366.871 295.377L369.035 295.787Z" fill="url(#paint40_linear_272_1219)"/>
<path d="M367.278 293.21L366.871 295.376L364.704 294.969L365.114 292.805L367.278 293.21Z" fill="url(#paint41_linear_272_1219)"/>
<path d="M365.522 290.637L365.114 292.804L362.948 292.394L363.358 290.23L365.522 290.637Z" fill="url(#paint42_linear_272_1219)"/>
<path d="M369.853 291.456L369.442 293.623L367.278 293.21L367.686 291.049L369.853 291.456Z" fill="url(#paint43_linear_272_1219)"/>
<path d="M368.097 288.885L367.686 291.049L365.522 290.638L365.933 288.471L368.097 288.885Z" fill="url(#paint44_linear_272_1219)"/>
<path d="M366.34 286.307L365.933 288.471L363.766 288.063L364.174 285.899L366.34 286.307Z" fill="url(#paint45_linear_272_1219)"/>
<path d="M370.671 287.125L370.264 289.289L368.097 288.884L368.504 286.718L370.671 287.125Z" fill="url(#paint46_linear_272_1219)"/>
<path d="M368.915 284.553L368.504 286.717L366.34 286.307L366.751 284.143L368.915 284.553Z" fill="url(#paint47_linear_272_1219)"/>
<path d="M367.159 281.979L366.751 284.143L364.584 283.736L364.992 281.572L367.159 281.979Z" fill="url(#paint48_linear_272_1219)"/>
<path d="M371.49 282.797L371.079 284.961L368.915 284.554L369.323 282.387L371.49 282.797Z" fill="url(#paint49_linear_272_1219)"/>
<path d="M369.733 280.223L369.323 282.387L367.159 281.979L367.566 279.815L369.733 280.223Z" fill="url(#paint50_linear_272_1219)"/>
<path d="M367.977 277.649L367.566 279.815L365.402 279.405L365.813 277.241L367.977 277.649Z" fill="url(#paint51_linear_272_1219)"/>
<path d="M372.308 278.466L371.897 280.633L369.733 280.223L370.141 278.059L372.308 278.466Z" fill="url(#paint52_linear_272_1219)"/>
<path d="M370.551 275.895L370.141 278.059L367.977 277.648L368.385 275.484L370.551 275.895Z" fill="url(#paint53_linear_272_1219)"/>
<path d="M368.795 273.321L368.385 275.484L366.221 275.077L366.628 272.91L368.795 273.321Z" fill="url(#paint54_linear_272_1219)"/>
<path d="M373.123 274.138L372.715 276.302L370.551 275.894L370.959 273.728L373.123 274.138Z" fill="url(#paint55_linear_272_1219)"/>
<defs>
<linearGradient id="paint0_linear_272_1219" x1="10.522" y1="182.921" x2="497.957" y2="182.921" gradientUnits="userSpaceOnUse">
<stop stop-color="#231F20"/>
<stop offset="1" stop-color="#58595B"/>
</linearGradient>
<linearGradient id="paint1_linear_272_1219" x1="112.83" y1="81.651" x2="446.373" y2="81.651" gradientUnits="userSpaceOnUse">
<stop stop-color="#399D27"/>
<stop offset="1" stop-color="#5FC52C"/>
</linearGradient>
<linearGradient id="paint2_linear_272_1219" x1="0.701729" y1="290.433" x2="546.52" y2="290.433" gradientUnits="userSpaceOnUse">
<stop stop-color="#399D27"/>
<stop offset="1" stop-color="#5FC52C"/>
</linearGradient>
<linearGradient id="paint3_linear_272_1219" x1="111.056" y1="173.581" x2="186.006" y2="173.581" gradientUnits="userSpaceOnUse">
<stop stop-color="#399D27"/>
<stop offset="1" stop-color="#5FC52C"/>
</linearGradient>
<linearGradient id="paint4_linear_272_1219" x1="40.3003" y1="182.689" x2="467.433" y2="182.689" gradientUnits="userSpaceOnUse">
<stop stop-color="#399D27"/>
<stop offset="1" stop-color="#5FC52C"/>
</linearGradient>
<linearGradient id="paint5_linear_272_1219" x1="324.057" y1="54.4907" x2="343.853" y2="54.4907" gradientUnits="userSpaceOnUse">
<stop stop-color="#F78000"/>
<stop offset="1" stop-color="#FBC400"/>
</linearGradient>
<linearGradient id="paint6_linear_272_1219" x1="338.659" y1="61.8915" x2="353.061" y2="61.8915" gradientUnits="userSpaceOnUse">
<stop stop-color="#5FC52C"/>
<stop offset="1" stop-color="#39DF3B"/>
</linearGradient>
<linearGradient id="paint7_linear_272_1219" x1="131.027" y1="22.2084" x2="150.823" y2="22.2084" gradientUnits="userSpaceOnUse">
<stop stop-color="#F78000"/>
<stop offset="1" stop-color="#FBC400"/>
</linearGradient>
<linearGradient id="paint8_linear_272_1219" x1="145.628" y1="29.6094" x2="160.03" y2="29.6094" gradientUnits="userSpaceOnUse">
<stop stop-color="#5FC52C"/>
<stop offset="1" stop-color="#39DF3B"/>
</linearGradient>
<linearGradient id="paint9_linear_272_1219" x1="234.61" y1="192.962" x2="258.393" y2="192.962" gradientUnits="userSpaceOnUse">
<stop stop-color="#F78000"/>
<stop offset="1" stop-color="#FBC400"/>
</linearGradient>
<linearGradient id="paint10_linear_272_1219" x1="252.153" y1="201.857" x2="269.458" y2="201.857" gradientUnits="userSpaceOnUse">
<stop stop-color="#5FC52C"/>
<stop offset="1" stop-color="#39DF3B"/>
</linearGradient>
<linearGradient id="paint11_linear_272_1219" x1="500.9" y1="281.243" x2="524.922" y2="281.243" gradientUnits="userSpaceOnUse">
<stop stop-color="#F78000"/>
<stop offset="1" stop-color="#FBC400"/>
</linearGradient>
<linearGradient id="paint12_linear_272_1219" x1="518.618" y1="290.223" x2="536.095" y2="290.223" gradientUnits="userSpaceOnUse">
<stop stop-color="#5FC52C"/>
<stop offset="1" stop-color="#39DF3B"/>
</linearGradient>
<linearGradient id="paint13_linear_272_1219" x1="389.202" y1="69.8278" x2="412.333" y2="69.8278" gradientUnits="userSpaceOnUse">
<stop stop-color="#F78000"/>
<stop offset="1" stop-color="#FBC400"/>
</linearGradient>
<linearGradient id="paint14_linear_272_1219" x1="406.265" y1="78.4769" x2="423.093" y2="78.4769" gradientUnits="userSpaceOnUse">
<stop stop-color="#5FC52C"/>
<stop offset="1" stop-color="#39DF3B"/>
</linearGradient>
<linearGradient id="paint15_linear_272_1219" x1="366.476" y1="78.4769" x2="383.305" y2="78.4769" gradientUnits="userSpaceOnUse">
<stop stop-color="#5FC52C"/>
<stop offset="1" stop-color="#39DF3B"/>
</linearGradient>
<linearGradient id="paint16_linear_272_1219" x1="261.418" y1="321.583" x2="288.826" y2="321.583" gradientUnits="userSpaceOnUse">
<stop stop-color="#F78000"/>
<stop offset="1" stop-color="#FBC400"/>
</linearGradient>
<linearGradient id="paint17_linear_272_1219" x1="281.635" y1="331.831" x2="301.574" y2="331.831" gradientUnits="userSpaceOnUse">
<stop stop-color="#5FC52C"/>
<stop offset="1" stop-color="#39DF3B"/>
</linearGradient>
<linearGradient id="paint18_linear_272_1219" x1="234.49" y1="331.831" x2="254.431" y2="331.831" gradientUnits="userSpaceOnUse">
<stop stop-color="#5FC52C"/>
<stop offset="1" stop-color="#39DF3B"/>
</linearGradient>
<linearGradient id="paint19_linear_272_1219" x1="195.467" y1="14.5542" x2="217.008" y2="14.5542" gradientUnits="userSpaceOnUse">
<stop stop-color="#F78000"/>
<stop offset="1" stop-color="#FBC400"/>
</linearGradient>
<linearGradient id="paint20_linear_272_1219" x1="212.202" y1="20.0939" x2="228.64" y2="20.0939" gradientUnits="userSpaceOnUse">
<stop stop-color="#5FC52C"/>
<stop offset="1" stop-color="#39DF3B"/>
</linearGradient>
<linearGradient id="paint21_linear_272_1219" x1="172.412" y1="20.0939" x2="188.849" y2="20.0939" gradientUnits="userSpaceOnUse">
<stop stop-color="#5FC52C"/>
<stop offset="1" stop-color="#39DF3B"/>
</linearGradient>
<linearGradient id="paint22_linear_272_1219" x1="361.681" y1="328.488" x2="383.222" y2="328.488" gradientUnits="userSpaceOnUse">
<stop stop-color="#F78000"/>
<stop offset="1" stop-color="#FBC400"/>
</linearGradient>
<linearGradient id="paint23_linear_272_1219" x1="378.416" y1="334.027" x2="394.854" y2="334.027" gradientUnits="userSpaceOnUse">
<stop stop-color="#5FC52C"/>
<stop offset="1" stop-color="#39DF3B"/>
</linearGradient>
<linearGradient id="paint24_linear_272_1219" x1="338.625" y1="334.028" x2="355.065" y2="334.028" gradientUnits="userSpaceOnUse">
<stop stop-color="#5FC52C"/>
<stop offset="1" stop-color="#39DF3B"/>
</linearGradient>
<linearGradient id="paint25_linear_272_1219" x1="314.162" y1="218.552" x2="335.702" y2="218.552" gradientUnits="userSpaceOnUse">
<stop stop-color="#F78000"/>
<stop offset="1" stop-color="#FBC400"/>
</linearGradient>
<linearGradient id="paint26_linear_272_1219" x1="330.897" y1="224.092" x2="347.335" y2="224.092" gradientUnits="userSpaceOnUse">
<stop stop-color="#5FC52C"/>
<stop offset="1" stop-color="#39DF3B"/>
</linearGradient>
<linearGradient id="paint27_linear_272_1219" x1="291.107" y1="224.092" x2="307.544" y2="224.092" gradientUnits="userSpaceOnUse">
<stop stop-color="#5FC52C"/>
<stop offset="1" stop-color="#39DF3B"/>
</linearGradient>
<linearGradient id="paint28_linear_272_1219" x1="221.305" y1="66.9528" x2="236.731" y2="66.9528" gradientUnits="userSpaceOnUse">
<stop stop-color="#5FC52C"/>
<stop offset="1" stop-color="#39DF3B"/>
</linearGradient>
<linearGradient id="paint29_linear_272_1219" x1="279.601" y1="158.71" x2="295.027" y2="158.71" gradientUnits="userSpaceOnUse">
<stop stop-color="#5FC52C"/>
<stop offset="1" stop-color="#39DF3B"/>
</linearGradient>
<linearGradient id="paint30_linear_272_1219" x1="48.1858" y1="245.783" x2="63.6119" y2="245.783" gradientUnits="userSpaceOnUse">
<stop stop-color="#5FC52C"/>
<stop offset="1" stop-color="#39DF3B"/>
</linearGradient>
<linearGradient id="paint31_linear_272_1219" x1="4.29324" y1="227.337" x2="25.2742" y2="227.337" gradientUnits="userSpaceOnUse">
<stop stop-color="#F78000"/>
<stop offset="1" stop-color="#FBC400"/>
</linearGradient>
<linearGradient id="paint32_linear_272_1219" x1="20.5924" y1="232.734" x2="36.6047" y2="232.734" gradientUnits="userSpaceOnUse">
<stop stop-color="#5FC52C"/>
<stop offset="1" stop-color="#39DF3B"/>
</linearGradient>
<linearGradient id="paint33_linear_272_1219" x1="259.664" y1="56.274" x2="277.777" y2="56.274" gradientUnits="userSpaceOnUse">
<stop stop-color="#F78000"/>
<stop offset="1" stop-color="#FBC400"/>
</linearGradient>
<linearGradient id="paint34_linear_272_1219" x1="273.736" y1="60.9339" x2="287.558" y2="60.9339" gradientUnits="userSpaceOnUse">
<stop stop-color="#5FC52C"/>
<stop offset="1" stop-color="#39DF3B"/>
</linearGradient>
<linearGradient id="paint35_linear_272_1219" x1="71.6407" y1="86.6835" x2="87.3648" y2="86.6835" gradientUnits="userSpaceOnUse">
<stop stop-color="#F78000"/>
<stop offset="1" stop-color="#FBC400"/>
</linearGradient>
<linearGradient id="paint36_linear_272_1219" x1="83.8565" y1="90.7279" x2="95.8568" y2="90.7279" gradientUnits="userSpaceOnUse">
<stop stop-color="#5FC52C"/>
<stop offset="1" stop-color="#39DF3B"/>
</linearGradient>
<linearGradient id="paint37_linear_272_1219" x1="133.52" y1="162.028" x2="149.245" y2="162.028" gradientUnits="userSpaceOnUse">
<stop stop-color="#F78000"/>
<stop offset="1" stop-color="#FBC400"/>
</linearGradient>
<linearGradient id="paint38_linear_272_1219" x1="145.736" y1="166.073" x2="157.736" y2="166.073" gradientUnits="userSpaceOnUse">
<stop stop-color="#5FC52C"/>
<stop offset="1" stop-color="#39DF3B"/>
</linearGradient>
<linearGradient id="paint39_linear_272_1219" x1="362.334" y1="295.641" x2="364.501" y2="296.05" gradientUnits="userSpaceOnUse">
<stop stop-color="#231F20"/>
<stop offset="1" stop-color="#58595B"/>
</linearGradient>
<linearGradient id="paint40_linear_272_1219" x1="366.665" y1="296.459" x2="368.831" y2="296.869" gradientUnits="userSpaceOnUse">
<stop stop-color="#231F20"/>
<stop offset="1" stop-color="#58595B"/>
</linearGradient>
<linearGradient id="paint41_linear_272_1219" x1="364.91" y1="293.885" x2="367.074" y2="294.294" gradientUnits="userSpaceOnUse">
<stop stop-color="#231F20"/>
<stop offset="1" stop-color="#58595B"/>
</linearGradient>
<linearGradient id="paint42_linear_272_1219" x1="363.153" y1="291.311" x2="365.319" y2="291.72" gradientUnits="userSpaceOnUse">
<stop stop-color="#231F20"/>
<stop offset="1" stop-color="#58595B"/>
</linearGradient>
<linearGradient id="paint43_linear_272_1219" x1="367.482" y1="292.13" x2="369.649" y2="292.539" gradientUnits="userSpaceOnUse">
<stop stop-color="#231F20"/>
<stop offset="1" stop-color="#58595B"/>
</linearGradient>
<linearGradient id="paint44_linear_272_1219" x1="365.727" y1="289.556" x2="367.892" y2="289.965" gradientUnits="userSpaceOnUse">
<stop stop-color="#231F20"/>
<stop offset="1" stop-color="#58595B"/>
</linearGradient>
<linearGradient id="paint45_linear_272_1219" x1="363.97" y1="286.981" x2="366.136" y2="287.39" gradientUnits="userSpaceOnUse">
<stop stop-color="#231F20"/>
<stop offset="1" stop-color="#58595B"/>
</linearGradient>
<linearGradient id="paint46_linear_272_1219" x1="368.301" y1="287.8" x2="370.467" y2="288.209" gradientUnits="userSpaceOnUse">
<stop stop-color="#231F20"/>
<stop offset="1" stop-color="#58595B"/>
</linearGradient>
<linearGradient id="paint47_linear_272_1219" x1="366.545" y1="285.225" x2="368.711" y2="285.635" gradientUnits="userSpaceOnUse">
<stop stop-color="#231F20"/>
<stop offset="1" stop-color="#58595B"/>
</linearGradient>
<linearGradient id="paint48_linear_272_1219" x1="364.789" y1="282.652" x2="366.955" y2="283.062" gradientUnits="userSpaceOnUse">
<stop stop-color="#231F20"/>
<stop offset="1" stop-color="#58595B"/>
</linearGradient>
<linearGradient id="paint49_linear_272_1219" x1="369.118" y1="283.47" x2="371.284" y2="283.88" gradientUnits="userSpaceOnUse">
<stop stop-color="#231F20"/>
<stop offset="1" stop-color="#58595B"/>
</linearGradient>
<linearGradient id="paint50_linear_272_1219" x1="367.363" y1="280.897" x2="369.528" y2="281.306" gradientUnits="userSpaceOnUse">
<stop stop-color="#231F20"/>
<stop offset="1" stop-color="#58595B"/>
</linearGradient>
<linearGradient id="paint51_linear_272_1219" x1="365.607" y1="278.323" x2="367.772" y2="278.732" gradientUnits="userSpaceOnUse">
<stop stop-color="#231F20"/>
<stop offset="1" stop-color="#58595B"/>
</linearGradient>
<linearGradient id="paint52_linear_272_1219" x1="369.937" y1="279.141" x2="372.103" y2="279.55" gradientUnits="userSpaceOnUse">
<stop stop-color="#231F20"/>
<stop offset="1" stop-color="#58595B"/>
</linearGradient>
<linearGradient id="paint53_linear_272_1219" x1="368.181" y1="276.567" x2="370.346" y2="276.976" gradientUnits="userSpaceOnUse">
<stop stop-color="#231F20"/>
<stop offset="1" stop-color="#58595B"/>
</linearGradient>
<linearGradient id="paint54_linear_272_1219" x1="366.424" y1="273.993" x2="368.591" y2="274.402" gradientUnits="userSpaceOnUse">
<stop stop-color="#231F20"/>
<stop offset="1" stop-color="#58595B"/>
</linearGradient>
<linearGradient id="paint55_linear_272_1219" x1="370.755" y1="274.811" x2="372.92" y2="275.22" gradientUnits="userSpaceOnUse">
<stop stop-color="#231F20"/>
<stop offset="1" stop-color="#58595B"/>
</linearGradient>
</defs>
</svg>
