<svg width="402" height="375" viewBox="0 0 402 375" fill="none" xmlns="http://www.w3.org/2000/svg">
<path d="M224.242 331.827C220.558 331.827 216.994 330.517 214.115 328.041L152.006 274.66C148.242 271.715 143.546 270.094 138.767 270.094H106.425C95.5155 270.094 85.5673 263.676 81.074 253.735C77.3658 245.526 77.8708 235.986 82.422 228.217C86.9758 220.448 95.0516 215.341 104.021 214.566L310.634 196.648C310.97 196.619 311.231 196.331 311.231 195.996C311.231 195.643 310.946 195.351 310.591 195.343L54.462 189.5C44.0646 189.258 35.0949 181.677 33.1381 171.464C31.6234 163.562 34.3532 155.708 40.4433 150.449C46.5359 145.192 54.706 143.636 62.3011 146.286L66.077 147.605C68.4009 148.42 71.0124 147.924 72.8773 146.301C75.3342 144.163 75.9574 140.554 74.3654 137.715L69.4856 129.028C65.4489 121.735 64.8594 113.152 67.826 105.424C70.7973 97.7007 76.989 91.724 84.8136 89.0305L198.867 49.7719C207.08 46.9406 216.212 48.2669 223.285 53.3134C230.363 58.3624 234.586 66.5591 234.586 75.2534V130.507C234.586 136.07 239.113 140.597 244.674 140.597C245.921 140.597 247.141 140.368 248.305 139.923L280 125.917C293.212 120.075 308.89 123.769 318.106 134.899L363.621 192.118C369.762 199.841 371.091 210.246 367.083 219.269L362.266 230.111C358.031 239.629 348.564 245.784 338.145 245.784H240.91C239.533 245.784 238.275 246.536 237.627 247.753C236.801 249.295 237.171 251.23 238.504 252.36L252.115 263.891C257.35 268.323 259.079 275.81 256.323 282.086L238.608 322.466C236.601 327.046 232.649 330.312 227.769 331.421C226.592 331.696 225.411 331.827 224.242 331.827ZM54.9307 161.827C53.201 161.827 51.9593 162.699 51.4206 163.168C50.7055 163.786 49.099 165.521 49.6377 168.301C50.116 170.797 52.3072 172.652 54.8485 172.708L310.975 178.549C320.379 178.766 328.03 186.593 328.03 195.998C328.03 205.122 321.177 212.597 312.086 213.384L105.476 231.299C101.869 231.611 98.7477 233.582 96.919 236.708C95.0878 239.832 94.8922 243.514 96.3827 246.816C98.1607 250.754 102.103 253.3 106.425 253.3H138.767C147.377 253.3 155.832 256.249 162.572 261.6L162.823 261.813L223.862 314.271L240.584 276.153L227.643 265.185C220.309 258.974 218.28 248.314 222.812 239.839C226.387 233.148 233.325 228.992 240.91 228.992H338.145C341.933 228.992 345.378 226.758 346.917 223.296L351.734 212.457C353.19 209.178 352.707 205.393 350.473 202.586L305.066 145.496C300.72 140.257 293.159 138.474 286.788 141.295L254.663 155.483C251.472 156.761 248.112 157.409 244.674 157.409C229.849 157.409 217.787 145.347 217.787 130.519V75.2655C217.787 71.9414 216.236 68.9314 213.53 67.0012C210.832 65.0734 207.476 64.5854 204.333 65.6677L90.2805 104.926C87.1593 105.999 84.6904 108.386 83.5043 111.466C82.3206 114.548 82.5573 117.971 84.1541 120.863L89.0074 129.499C94.4839 139.249 92.3339 151.649 83.8981 158.986C77.5011 164.55 68.5507 166.279 60.5353 163.475L56.7569 162.158C56.1023 161.921 55.4887 161.827 54.9307 161.827Z" fill="url(#paint0_linear_272_237)"/>
<path d="M227.187 328.894L156.869 268.461C151.803 264.439 145.367 262.219 138.77 262.219H106.425C98.6053 262.219 91.4715 257.617 88.2513 250.49C85.5553 244.518 85.9055 237.853 89.2151 232.198C92.532 226.538 98.1777 222.972 104.705 222.407L311.315 204.492C315.758 204.108 319.106 200.455 319.106 195.995C319.106 191.401 315.367 187.576 310.772 187.47L54.648 181.629C47.9322 181.477 42.1368 176.578 40.8734 169.978C39.895 164.888 41.656 159.817 45.5841 156.418C49.4493 153.075 54.8582 152.031 59.7091 153.727L63.4801 155.041C68.4275 156.771 74.1191 155.662 78.0471 152.246C83.3038 147.673 84.6421 139.942 81.2286 133.867L76.3754 125.231C73.4837 119.991 73.0465 113.809 75.1796 108.26C77.3079 102.713 81.7553 98.4228 87.3792 96.4854L201.432 57.2268C203.452 56.5286 205.553 56.1736 207.674 56.1736C211.639 56.1736 215.456 57.4032 218.719 59.732C223.802 63.358 226.715 69.0182 226.715 75.2605V130.516C226.715 140.421 234.772 148.48 244.677 148.48C246.928 148.48 249.131 148.064 251.231 147.241L283.184 133.128C286.324 131.739 289.665 131.036 293.11 131.036C300.464 131.036 307.327 134.229 311.939 139.8L357.464 197.032C361.773 202.45 362.704 209.753 359.889 216.078L355.075 226.917C352.103 233.602 345.46 237.921 338.15 237.921H240.913C236.625 237.921 232.704 240.269 230.685 244.052C228.121 248.84 229.271 254.868 233.414 258.378L251.436 273.645L227.187 328.894ZM54.9307 153.951C51.7757 153.951 48.7004 155.109 46.2678 157.21C42.6248 160.365 40.9941 165.062 41.9025 169.777C43.0741 175.899 48.4419 180.44 54.6673 180.578L310.791 186.422C315.954 186.54 320.152 190.833 320.152 195.998C320.152 201.003 316.389 205.108 311.402 205.538L104.792 223.453C98.6076 223.987 93.2616 227.369 90.1163 232.732C86.983 238.088 86.6496 244.402 89.2055 250.058C92.2542 256.81 99.0135 261.173 106.423 261.173H138.767C145.604 261.173 152.269 263.475 157.535 267.654L226.795 327.179L250.153 273.94L232.731 259.177C228.211 255.351 226.959 248.777 229.752 243.552C231.958 239.428 236.234 236.865 240.908 236.865H338.145C345.042 236.865 351.306 232.792 354.106 226.49L358.923 215.65C361.578 209.681 360.703 202.796 356.638 197.682L311.122 140.459C306.713 135.14 300.145 132.084 293.105 132.084C289.805 132.084 286.609 132.756 283.602 134.089L251.627 148.212C249.387 149.089 247.054 149.531 244.672 149.531C234.19 149.531 225.66 141.001 225.66 130.516V75.2557C225.66 69.3564 222.906 64.0103 218.103 60.5847C213.373 57.2075 207.254 56.3233 201.768 58.2173L87.7174 97.4758C82.3882 99.3094 78.1727 103.378 76.1555 108.634C74.1335 113.891 74.549 119.754 77.2909 124.716L82.1442 133.35C85.7968 139.86 84.3643 148.139 78.7307 153.036C75.8536 155.536 72.1574 156.913 68.326 156.913C66.5553 156.913 64.8063 156.616 63.1322 156.032L59.3588 154.715C57.9142 154.21 56.4236 153.951 54.9307 153.951Z" fill="white"/>
<path d="M167.935 255.134C159.572 248.493 149.264 244.898 138.77 244.898H106.425C105.398 244.898 104.461 244.294 104.036 243.355C103.671 242.538 103.71 241.726 104.166 240.948C104.62 240.18 105.304 239.745 106.198 239.67L219.715 229.826C218.048 231.621 216.593 233.65 215.405 235.875C209.015 247.816 211.88 262.838 222.213 271.59L230.375 278.509L220.732 300.499L167.935 255.134ZM318.609 220.588C328.38 217.446 335.425 208.773 336.333 198.293L343.897 207.807C344.184 208.164 344.242 208.613 344.054 209.036L339.237 219.876C339.048 220.301 338.609 220.586 338.145 220.586H318.609V220.588ZM314.139 170.396C313.166 170.256 312.175 170.176 311.168 170.15L89.662 165.098C100.883 155.131 103.698 138.484 96.3344 125.378L91.4787 116.74C91.1091 116.07 91.0512 115.247 91.3459 114.474C91.643 113.701 92.2373 113.128 93.0176 112.862L207.068 73.6014C207.276 73.5314 207.479 73.4927 207.672 73.4927C208.015 73.4927 208.332 73.6038 208.65 73.8309C209.146 74.1836 209.385 74.6474 209.385 75.2562V130.512C209.385 149.971 225.218 165.801 244.672 165.801C249.18 165.801 253.588 164.951 257.775 163.277L258.053 163.161L290.18 148.973C291.103 148.563 292.086 148.357 293.105 148.357C295.253 148.357 297.299 149.29 298.594 150.848L314.139 170.396Z" fill="url(#paint1_linear_272_237)"/>
<path d="M289.967 292.77C273.75 289.995 279.108 273.942 294.439 254.186H253.646L257.541 257.486C265.587 264.303 268.252 275.809 264.012 285.465L246.3 325.845C243.208 332.889 237.132 337.907 229.631 339.617C227.856 340.02 226.046 340.223 224.244 340.223C218.545 340.223 213.004 338.16 208.641 334.406L146.698 281.17C144.43 279.443 141.62 278.496 138.77 278.496H106.425C92.2252 278.496 79.2694 270.132 73.4233 257.194C68.5918 246.506 69.2488 234.087 75.1771 223.97C81.103 213.852 91.6164 207.207 103.299 206.192L168.819 200.513L73.3436 198.336C33.4014 223.085 -3.23368 249.98 1.11227 263.16C10.3284 291.118 69.4783 263.648 77.878 285.608C86.2776 307.567 28.6882 331.104 22.5715 354.247C16.4523 377.387 123.55 324.204 157.673 322.711C191.796 321.216 152.184 358.665 152.948 370.628C153.759 383.328 230.119 367.159 285.242 337.624C340.363 308.091 326.189 298.974 289.967 292.77Z" fill="url(#paint2_linear_272_237)"/>
<path d="M355.589 131.697C314.64 113.85 387.871 60.302 369.366 27.7545C350.861 -4.79551 49.5265 36.212 24.852 82.9038C17.6892 96.4538 33.8265 103.894 58.2571 108.644C58.6606 106.54 59.2017 104.45 59.9844 102.414C63.852 92.3664 71.9038 84.5973 82.0814 81.092L196.134 41.8335C199.83 40.5604 203.696 39.913 207.619 39.913C215.035 39.913 222.142 42.1838 228.165 46.4766C237.444 53.0982 242.986 63.8556 242.986 75.2556V130.511C242.986 131.441 243.744 132.2 244.674 132.2C244.843 132.2 245.012 132.173 245.174 132.125L276.603 118.234C281.802 115.939 287.332 114.77 293.04 114.77C305.307 114.77 316.802 120.155 324.578 129.54L369.361 185.839C371.27 184.542 373.159 183.286 375.017 182.095C424.885 150.074 396.534 149.548 355.589 131.697Z" fill="url(#paint3_linear_272_237)"/>
<path d="M11.9156 242.868H9.95642V254.256H11.9156V242.868Z" fill="#A97C50"/>
<path d="M10.9348 208.128L0.858681 245.082H10.9348H21.0109L10.9348 208.128Z" fill="url(#paint4_linear_272_237)"/>
<path d="M23.7674 245.971H22.3444V254.257H23.7674V245.971Z" fill="#A97C50"/>
<path d="M23.0547 220.699L15.7253 247.582H23.0547H30.3841L23.0547 220.699Z" fill="url(#paint5_linear_272_237)"/>
<path d="M181.492 353.129H179.785V363.077H181.492V353.129Z" fill="#A97C50"/>
<path d="M180.637 322.789L171.839 355.061H180.637H189.438L180.637 322.789Z" fill="url(#paint6_linear_272_237)"/>
<path d="M191.844 355.839H190.6V363.076H191.844V355.839Z" fill="#A97C50"/>
<path d="M191.223 333.766L184.821 357.245H191.223H197.627L191.223 333.766Z" fill="url(#paint7_linear_272_237)"/>
<path d="M194.26 247.627H192.943V255.28H194.26V247.627Z" fill="#A97C50"/>
<path d="M193.603 224.291L186.834 249.118H193.603H200.372L193.603 224.291Z" fill="url(#paint8_linear_272_237)"/>
<path d="M202.222 249.715H201.265V255.284H202.222V249.715Z" fill="#A97C50"/>
<path d="M201.746 232.737L196.82 250.795H201.746H206.669L201.746 232.737Z" fill="url(#paint9_linear_272_237)"/>
<path d="M71.4062 325.2H69.1498V338.322H71.4062V325.2Z" fill="#A97C50"/>
<path d="M70.278 285.166L58.663 327.751H70.278H81.8881L70.278 285.166Z" fill="url(#paint10_linear_272_237)"/>
<path d="M85.065 328.773H83.4223V338.32H85.065V328.773Z" fill="#A97C50"/>
<path d="M84.2435 299.651L75.7956 330.631H84.2435H92.6914L84.2435 299.651Z" fill="url(#paint11_linear_272_237)"/>
<path d="M45.1178 328.773H43.4775V338.32H45.1178V328.773Z" fill="#A97C50"/>
<path d="M44.2964 299.651L35.8509 330.631H44.2964H52.7444L44.2964 299.651Z" fill="url(#paint12_linear_272_237)"/>
<path d="M285.438 98.1531H283.529V109.249H285.438V98.1531Z" fill="#A97C50"/>
<path d="M284.483 64.3127L274.666 100.31H284.483H294.299L284.483 64.3127Z" fill="url(#paint13_linear_272_237)"/>
<path d="M296.983 101.175H295.596V109.248H296.983V101.175Z" fill="#A97C50"/>
<path d="M296.289 76.5562L289.148 102.745H296.289H303.433L296.289 76.5562Z" fill="url(#paint14_linear_272_237)"/>
<path d="M263.215 101.175H261.826V109.248H263.215V101.175Z" fill="#A97C50"/>
<path d="M262.519 76.5562L255.379 102.745H262.519H269.66L262.519 76.5562Z" fill="url(#paint15_linear_272_237)"/>
<path d="M141.814 150.456H139.845V161.921H141.814V150.456Z" fill="#A97C50"/>
<path d="M140.83 115.483L130.684 152.686H140.83H150.974L140.83 115.483Z" fill="url(#paint16_linear_272_237)"/>
<path d="M153.748 153.58H152.313V161.921H153.748V153.58Z" fill="#A97C50"/>
<path d="M153.03 128.139L145.65 155.203H153.03H160.408L153.03 128.139Z" fill="url(#paint17_linear_272_237)"/>
<path d="M118.847 153.58H117.414V161.921H118.847V153.58Z" fill="#A97C50"/>
<path d="M118.132 128.139L110.752 155.203H118.132H125.512L118.132 128.139Z" fill="url(#paint18_linear_272_237)"/>
<path d="M299.824 302.289H297.833V313.868H299.824V302.289Z" fill="#A97C50"/>
<path d="M298.831 266.961L288.581 304.541H298.831H309.076L298.831 266.961Z" fill="url(#paint19_linear_272_237)"/>
<path d="M311.878 305.444H310.431V313.868H311.878V305.444Z" fill="#A97C50"/>
<path d="M311.153 279.743L303.698 307.084H311.153H318.609L311.153 279.743Z" fill="url(#paint20_linear_272_237)"/>
<path d="M276.628 305.444H275.178V313.868H276.628V305.444Z" fill="#A97C50"/>
<path d="M275.903 279.743L268.448 307.084H275.903H283.358L275.903 279.743Z" fill="url(#paint21_linear_272_237)"/>
<path d="M381.09 147.949H379.5V157.194H381.09V147.949Z" fill="#A97C50"/>
<path d="M380.295 119.745L372.115 149.746H380.295H388.475L380.295 119.745Z" fill="url(#paint22_linear_272_237)"/>
<path d="M390.712 150.469H389.557V157.194H390.712V150.469Z" fill="#A97C50"/>
<path d="M390.134 129.949L384.182 151.776H390.134H396.087L390.134 129.949Z" fill="url(#paint23_linear_272_237)"/>
<path d="M327.692 73.7917H326.105V83.0344H327.692V73.7917Z" fill="#A97C50"/>
<path d="M326.897 45.5852L318.717 75.5866H326.897H335.079L326.897 45.5852Z" fill="url(#paint24_linear_272_237)"/>
<path d="M337.316 76.3096H336.159V83.0326H337.316V76.3096Z" fill="#A97C50"/>
<path d="M336.736 55.7874L330.789 77.6186H336.736H342.689L336.736 55.7874Z" fill="url(#paint25_linear_272_237)"/>
<path d="M145.27 36.6904H143.683V45.9331H145.27V36.6904Z" fill="#A97C50"/>
<path d="M144.481 8.48401L136.296 38.4854H144.481H152.66L144.481 8.48401Z" fill="url(#paint26_linear_272_237)"/>
<path d="M154.895 39.208H153.74V45.9335H154.895V39.208Z" fill="#A97C50"/>
<path d="M154.317 18.6886L148.365 40.5149H154.317H160.27L154.317 18.6886Z" fill="url(#paint27_linear_272_237)"/>
<path d="M80.5039 55.9902H78.9167V65.233H80.5039V55.9902Z" fill="#A97C50"/>
<path d="M79.7091 27.7859L71.5294 57.7872H79.7091H87.8913L79.7091 27.7859Z" fill="url(#paint28_linear_272_237)"/>
<path d="M90.1284 58.5098H88.9713V65.2329H90.1284V58.5098Z" fill="#A97C50"/>
<path d="M89.551 37.9873L83.5986 59.8162H89.551H95.5011L89.551 37.9873Z" fill="url(#paint29_linear_272_237)"/>
<path d="M140.396 294.102H138.432V305.541H140.396V294.102Z" fill="#A97C50"/>
<path d="M148.539 285.722C148.539 292.532 144.454 298.054 139.415 298.054C134.373 298.054 130.288 292.532 130.288 285.722C130.288 278.912 134.373 273.389 139.415 273.389C144.454 273.389 148.539 278.912 148.539 285.722Z" fill="url(#paint30_linear_272_237)"/>
<path d="M152.182 296.813H150.682V305.541H152.182V296.813Z" fill="#A97C50"/>
<path d="M158.393 290.415C158.393 295.614 155.276 299.827 151.428 299.827C147.585 299.827 144.466 295.617 144.466 290.415C144.466 285.219 147.585 281.004 151.428 281.004C155.276 281.004 158.393 285.219 158.393 290.415Z" fill="url(#paint31_linear_272_237)"/>
<path d="M118.465 296.813H116.967V305.541H118.465V296.813Z" fill="#A97C50"/>
<path d="M124.681 290.415C124.681 295.614 121.562 299.827 117.714 299.827C113.868 299.827 110.749 295.617 110.749 290.415C110.749 285.219 113.868 281.004 117.714 281.004C121.562 281.004 124.681 285.219 124.681 290.415Z" fill="url(#paint32_linear_272_237)"/>
<path d="M177.451 99.8772H175.485V111.311H177.451V99.8772Z" fill="#A97C50"/>
<path d="M185.592 91.4972C185.592 98.3097 181.509 103.83 176.468 103.83C171.426 103.83 167.343 98.3097 167.343 91.4972C167.343 84.6872 171.426 79.1648 176.468 79.1648C181.509 79.1624 185.592 84.6848 185.592 91.4972Z" fill="url(#paint33_linear_272_237)"/>
<path d="M189.235 102.588H187.735V111.314H189.235V102.588Z" fill="#A97C50"/>
<path d="M195.451 96.1911C195.451 101.387 192.33 105.605 188.486 105.605C184.638 105.605 181.519 101.39 181.519 96.1911C181.519 90.9924 184.638 86.7817 188.486 86.7817C192.33 86.7817 195.451 90.9924 195.451 96.1911Z" fill="url(#paint34_linear_272_237)"/>
<path d="M155.521 102.588H154.02V111.314H155.521V102.588Z" fill="#A97C50"/>
<path d="M161.734 96.1911C161.734 101.387 158.615 105.605 154.769 105.605C150.921 105.605 147.805 101.39 147.805 96.1911C147.805 90.9924 150.921 86.7817 154.769 86.7817C158.615 86.7817 161.734 90.9924 161.734 96.1911Z" fill="url(#paint35_linear_272_237)"/>
<path d="M36.2085 81.3267H34.2445V92.7653H36.2085V81.3267Z" fill="#A97C50"/>
<path d="M44.3521 72.9465C44.3521 79.7565 40.267 85.2789 35.2253 85.2789C30.186 85.2789 26.101 79.7565 26.101 72.9465C26.101 66.1365 30.186 60.614 35.2253 60.614C40.267 60.614 44.3521 66.1365 44.3521 72.9465Z" fill="url(#paint36_linear_272_237)"/>
<path d="M47.9926 84.0366H46.4924V92.7647H47.9926V84.0366Z" fill="#A97C50"/>
<path d="M54.2059 77.6401C54.2059 82.8364 51.0896 87.0519 47.2413 87.0519C43.3954 87.0519 40.2766 82.8388 40.2766 77.6401C40.2766 72.4413 43.3954 68.2258 47.2413 68.2258C51.0896 68.2282 54.2059 72.4438 54.2059 77.6401Z" fill="url(#paint37_linear_272_237)"/>
<path d="M338.619 20.7128H336.652V32.1466H338.619V20.7128Z" fill="#A97C50"/>
<path d="M346.764 12.3325C346.764 19.1425 342.679 24.6625 337.638 24.6625C332.596 24.6625 328.513 19.1425 328.513 12.3325C328.513 5.52004 332.596 0 337.638 0C342.677 0 346.764 5.52004 346.764 12.3325Z" fill="url(#paint38_linear_272_237)"/>
<path d="M350.405 23.4211H348.905V32.1469H350.405V23.4211Z" fill="#A97C50"/>
<path d="M356.618 17.0265C356.618 22.2228 353.5 26.4383 349.654 26.4383C345.808 26.4383 342.689 22.2228 342.689 17.0265C342.689 11.8278 345.808 7.61475 349.654 7.61475C353.5 7.61475 356.618 11.8254 356.618 17.0265Z" fill="url(#paint39_linear_272_237)"/>
<path d="M316.69 23.4211H315.19V32.1469H316.69V23.4211Z" fill="#A97C50"/>
<path d="M322.904 17.0265C322.904 22.2228 319.785 26.4383 315.939 26.4383C312.091 26.4383 308.972 22.2228 308.972 17.0265C308.972 11.8278 312.091 7.61475 315.939 7.61475C319.785 7.61475 322.904 11.8254 322.904 17.0265Z" fill="url(#paint40_linear_272_237)"/>
<path d="M53.3773 259.494H52.1091V266.881H53.3773V259.494Z" fill="#A97C50"/>
<path d="M52.7444 236.967L46.2097 260.929H52.7444H59.279L52.7444 236.967Z" fill="url(#paint41_linear_272_237)"/>
<path d="M217.171 277.812H215.903V285.197H217.171V277.812Z" fill="#A97C50"/>
<path d="M216.538 255.283L210.003 279.245H216.538H223.073L216.538 255.283Z" fill="url(#paint42_linear_272_237)"/>
<path d="M193.579 141.655H192.31V149.043H193.579V141.655Z" fill="#A97C50"/>
<path d="M192.943 119.126L186.409 143.09H192.943H199.48L192.943 119.126Z" fill="url(#paint43_linear_272_237)"/>
<path d="M295.613 158.593H294.623V164.354H295.613V158.593Z" fill="#A97C50"/>
<path d="M295.115 141.018L290.021 159.711H295.115H300.215L295.115 141.018Z" fill="url(#paint44_linear_272_237)"/>
<path d="M50.9784 215.261H49.0627V226.398H50.9784V215.261Z" fill="#A97C50"/>
<path d="M58.9094 207.096C58.9094 213.732 54.9282 219.112 50.0194 219.112C45.1106 219.112 41.1294 213.732 41.1294 207.096C41.1294 200.462 45.1081 195.082 50.0194 195.082C54.9306 195.082 58.9094 200.462 58.9094 207.096Z" fill="url(#paint45_linear_272_237)"/>
<path d="M62.4557 217.899H60.9942V226.401H62.4557V217.899Z" fill="#A97C50"/>
<path d="M68.5072 211.669C68.5072 216.732 65.473 220.839 61.7237 220.839C57.9769 220.839 54.9403 216.732 54.9403 211.669C54.9403 206.605 57.9769 202.501 61.7237 202.501C65.473 202.501 68.5072 206.605 68.5072 211.669Z" fill="url(#paint46_linear_272_237)"/>
<path d="M165.983 240.455H164.749V247.63H165.983V240.455Z" fill="#A97C50"/>
<path d="M171.09 235.196C171.09 239.472 168.529 242.934 165.367 242.934C162.205 242.934 159.642 239.47 159.642 235.196C159.642 230.925 162.207 227.458 165.367 227.458C168.527 227.458 171.09 230.925 171.09 235.196Z" fill="url(#paint47_linear_272_237)"/>
<path d="M173.38 242.154H172.436V247.63H173.38V242.154Z" fill="#A97C50"/>
<path d="M177.277 238.141C177.277 241.405 175.318 244.048 172.907 244.048C170.493 244.048 168.534 241.402 168.534 238.141C168.534 234.882 170.493 232.237 172.907 232.237C175.318 232.235 177.277 234.882 177.277 238.141Z" fill="url(#paint48_linear_272_237)"/>
<path d="M358.49 150.86H357.256V158.034H358.49V150.86Z" fill="#A97C50"/>
<path d="M363.597 145.6C363.597 149.876 361.037 153.338 357.874 153.338C354.71 153.338 352.149 149.874 352.149 145.6C352.149 141.325 354.712 137.863 357.874 137.863C361.034 137.863 363.597 141.327 363.597 145.6Z" fill="url(#paint49_linear_272_237)"/>
<path d="M365.885 152.56H364.94V158.034H365.885V152.56Z" fill="#A97C50"/>
<path d="M369.782 148.545C369.782 151.809 367.823 154.452 365.409 154.452C362.996 154.452 361.039 151.807 361.039 148.545C361.039 145.284 362.996 142.641 365.409 142.641C367.823 142.641 369.782 145.284 369.782 148.545Z" fill="url(#paint50_linear_272_237)"/>
<path d="M220.599 23.6216H219.364V30.7964H220.599V23.6216Z" fill="#A97C50"/>
<path d="M225.706 18.3646C225.706 22.6381 223.143 26.1023 219.98 26.1023C216.818 26.1023 214.255 22.6381 214.255 18.3646C214.255 14.0887 216.818 10.6245 219.98 10.6245C223.14 10.6245 225.706 14.0912 225.706 18.3646Z" fill="url(#paint51_linear_272_237)"/>
<path d="M227.989 25.3196H227.049V30.7961H227.989V25.3196Z" fill="#A97C50"/>
<path d="M231.89 21.3094C231.89 24.5707 229.931 27.2135 227.518 27.2135C225.107 27.2135 223.147 24.5683 223.147 21.3094C223.147 18.0481 225.107 15.4053 227.518 15.4053C229.933 15.4053 231.89 18.0481 231.89 21.3094Z" fill="url(#paint52_linear_272_237)"/>
<path d="M267.612 42.5896H265.873V52.7068H267.612V42.5896Z" fill="#A97C50"/>
<path d="M274.813 35.1759C274.813 41.2008 271.199 46.0855 266.742 46.0855C262.283 46.0855 258.671 41.2008 258.671 35.1759C258.671 29.151 262.283 24.2664 266.742 24.2664C271.199 24.2688 274.813 29.151 274.813 35.1759Z" fill="url(#paint53_linear_272_237)"/>
<path d="M278.036 44.9834H276.707V52.7042H278.036V44.9834Z" fill="#A97C50"/>
<path d="M283.529 39.3283C283.529 43.9231 280.773 47.6507 277.369 47.6507C273.968 47.6507 271.211 43.9231 271.211 39.3283C271.211 34.7312 273.968 31.0061 277.369 31.0061C280.773 31.0061 283.529 34.7312 283.529 39.3283Z" fill="url(#paint54_linear_272_237)"/>
<defs>
<linearGradient id="paint0_linear_272_237" x1="32.7269" y1="190.07" x2="369.368" y2="190.07" gradientUnits="userSpaceOnUse">
<stop stop-color="#231F20"/>
<stop offset="1" stop-color="#58595B"/>
</linearGradient>
<linearGradient id="paint1_linear_272_237" x1="89.6601" y1="186.996" x2="344.161" y2="186.996" gradientUnits="userSpaceOnUse">
<stop stop-color="#399D27"/>
<stop offset="1" stop-color="#5FC52C"/>
</linearGradient>
<linearGradient id="paint2_linear_272_237" x1="0.758122" y1="286.666" x2="321.949" y2="286.666" gradientUnits="userSpaceOnUse">
<stop stop-color="#399D27"/>
<stop offset="1" stop-color="#5FC52C"/>
</linearGradient>
<linearGradient id="paint3_linear_272_237" x1="23.1416" y1="100.957" x2="401.582" y2="100.957" gradientUnits="userSpaceOnUse">
<stop stop-color="#399D27"/>
<stop offset="1" stop-color="#5FC52C"/>
</linearGradient>
<linearGradient id="paint4_linear_272_237" x1="0.859647" y1="226.604" x2="21.0114" y2="226.604" gradientUnits="userSpaceOnUse">
<stop stop-color="#F78000"/>
<stop offset="1" stop-color="#FBC400"/>
</linearGradient>
<linearGradient id="paint5_linear_272_237" x1="15.7246" y1="234.141" x2="30.3843" y2="234.141" gradientUnits="userSpaceOnUse">
<stop stop-color="#5FC52C"/>
<stop offset="1" stop-color="#39DF3B"/>
</linearGradient>
<linearGradient id="paint6_linear_272_237" x1="171.839" y1="338.925" x2="189.438" y2="338.925" gradientUnits="userSpaceOnUse">
<stop stop-color="#F78000"/>
<stop offset="1" stop-color="#FBC400"/>
</linearGradient>
<linearGradient id="paint7_linear_272_237" x1="184.821" y1="345.506" x2="197.626" y2="345.506" gradientUnits="userSpaceOnUse">
<stop stop-color="#5FC52C"/>
<stop offset="1" stop-color="#39DF3B"/>
</linearGradient>
<linearGradient id="paint8_linear_272_237" x1="186.833" y1="236.705" x2="200.372" y2="236.705" gradientUnits="userSpaceOnUse">
<stop stop-color="#F78000"/>
<stop offset="1" stop-color="#FBC400"/>
</linearGradient>
<linearGradient id="paint9_linear_272_237" x1="196.819" y1="241.765" x2="206.669" y2="241.765" gradientUnits="userSpaceOnUse">
<stop stop-color="#5FC52C"/>
<stop offset="1" stop-color="#39DF3B"/>
</linearGradient>
<linearGradient id="paint10_linear_272_237" x1="58.6632" y1="306.457" x2="81.8891" y2="306.457" gradientUnits="userSpaceOnUse">
<stop stop-color="#F78000"/>
<stop offset="1" stop-color="#FBC400"/>
</linearGradient>
<linearGradient id="paint11_linear_272_237" x1="75.7954" y1="315.141" x2="92.6916" y2="315.141" gradientUnits="userSpaceOnUse">
<stop stop-color="#5FC52C"/>
<stop offset="1" stop-color="#39DF3B"/>
</linearGradient>
<linearGradient id="paint12_linear_272_237" x1="35.8505" y1="315.141" x2="52.7441" y2="315.141" gradientUnits="userSpaceOnUse">
<stop stop-color="#5FC52C"/>
<stop offset="1" stop-color="#39DF3B"/>
</linearGradient>
<linearGradient id="paint13_linear_272_237" x1="274.666" y1="82.3111" x2="294.299" y2="82.3111" gradientUnits="userSpaceOnUse">
<stop stop-color="#F78000"/>
<stop offset="1" stop-color="#FBC400"/>
</linearGradient>
<linearGradient id="paint14_linear_272_237" x1="289.149" y1="89.6508" x2="303.434" y2="89.6508" gradientUnits="userSpaceOnUse">
<stop stop-color="#5FC52C"/>
<stop offset="1" stop-color="#39DF3B"/>
</linearGradient>
<linearGradient id="paint15_linear_272_237" x1="255.378" y1="89.6508" x2="269.66" y2="89.6508" gradientUnits="userSpaceOnUse">
<stop stop-color="#5FC52C"/>
<stop offset="1" stop-color="#39DF3B"/>
</linearGradient>
<linearGradient id="paint16_linear_272_237" x1="130.683" y1="134.085" x2="150.974" y2="134.085" gradientUnits="userSpaceOnUse">
<stop stop-color="#F78000"/>
<stop offset="1" stop-color="#FBC400"/>
</linearGradient>
<linearGradient id="paint17_linear_272_237" x1="145.65" y1="141.67" x2="160.408" y2="141.67" gradientUnits="userSpaceOnUse">
<stop stop-color="#5FC52C"/>
<stop offset="1" stop-color="#39DF3B"/>
</linearGradient>
<linearGradient id="paint18_linear_272_237" x1="110.751" y1="141.67" x2="125.512" y2="141.67" gradientUnits="userSpaceOnUse">
<stop stop-color="#5FC52C"/>
<stop offset="1" stop-color="#39DF3B"/>
</linearGradient>
<linearGradient id="paint19_linear_272_237" x1="288.581" y1="285.751" x2="309.077" y2="285.751" gradientUnits="userSpaceOnUse">
<stop stop-color="#F78000"/>
<stop offset="1" stop-color="#FBC400"/>
</linearGradient>
<linearGradient id="paint20_linear_272_237" x1="303.698" y1="293.414" x2="318.608" y2="293.414" gradientUnits="userSpaceOnUse">
<stop stop-color="#5FC52C"/>
<stop offset="1" stop-color="#39DF3B"/>
</linearGradient>
<linearGradient id="paint21_linear_272_237" x1="268.448" y1="293.414" x2="283.358" y2="293.414" gradientUnits="userSpaceOnUse">
<stop stop-color="#5FC52C"/>
<stop offset="1" stop-color="#39DF3B"/>
</linearGradient>
<linearGradient id="paint22_linear_272_237" x1="372.116" y1="134.745" x2="388.476" y2="134.745" gradientUnits="userSpaceOnUse">
<stop stop-color="#F78000"/>
<stop offset="1" stop-color="#FBC400"/>
</linearGradient>
<linearGradient id="paint23_linear_272_237" x1="384.182" y1="140.862" x2="396.087" y2="140.862" gradientUnits="userSpaceOnUse">
<stop stop-color="#5FC52C"/>
<stop offset="1" stop-color="#39DF3B"/>
</linearGradient>
<linearGradient id="paint24_linear_272_237" x1="318.716" y1="60.5852" x2="335.079" y2="60.5852" gradientUnits="userSpaceOnUse">
<stop stop-color="#F78000"/>
<stop offset="1" stop-color="#FBC400"/>
</linearGradient>
<linearGradient id="paint25_linear_272_237" x1="330.788" y1="66.7027" x2="342.69" y2="66.7027" gradientUnits="userSpaceOnUse">
<stop stop-color="#5FC52C"/>
<stop offset="1" stop-color="#39DF3B"/>
</linearGradient>
<linearGradient id="paint26_linear_272_237" x1="136.296" y1="23.4857" x2="152.661" y2="23.4857" gradientUnits="userSpaceOnUse">
<stop stop-color="#F78000"/>
<stop offset="1" stop-color="#FBC400"/>
</linearGradient>
<linearGradient id="paint27_linear_272_237" x1="148.365" y1="29.602" x2="160.269" y2="29.602" gradientUnits="userSpaceOnUse">
<stop stop-color="#5FC52C"/>
<stop offset="1" stop-color="#39DF3B"/>
</linearGradient>
<linearGradient id="paint28_linear_272_237" x1="71.5301" y1="42.7856" x2="87.8908" y2="42.7856" gradientUnits="userSpaceOnUse">
<stop stop-color="#F78000"/>
<stop offset="1" stop-color="#FBC400"/>
</linearGradient>
<linearGradient id="paint29_linear_272_237" x1="83.5996" y1="48.9025" x2="95.5015" y2="48.9025" gradientUnits="userSpaceOnUse">
<stop stop-color="#5FC52C"/>
<stop offset="1" stop-color="#39DF3B"/>
</linearGradient>
<linearGradient id="paint30_linear_272_237" x1="130.287" y1="285.722" x2="148.539" y2="285.722" gradientUnits="userSpaceOnUse">
<stop stop-color="#F78000"/>
<stop offset="1" stop-color="#FBC400"/>
</linearGradient>
<linearGradient id="paint31_linear_272_237" x1="144.468" y1="290.415" x2="158.394" y2="290.415" gradientUnits="userSpaceOnUse">
<stop stop-color="#5FC52C"/>
<stop offset="1" stop-color="#39DF3B"/>
</linearGradient>
<linearGradient id="paint32_linear_272_237" x1="110.751" y1="290.415" x2="124.682" y2="290.415" gradientUnits="userSpaceOnUse">
<stop stop-color="#5FC52C"/>
<stop offset="1" stop-color="#39DF3B"/>
</linearGradient>
<linearGradient id="paint33_linear_272_237" x1="167.342" y1="91.4965" x2="185.592" y2="91.4965" gradientUnits="userSpaceOnUse">
<stop stop-color="#F78000"/>
<stop offset="1" stop-color="#FBC400"/>
</linearGradient>
<linearGradient id="paint34_linear_272_237" x1="181.521" y1="96.1923" x2="195.451" y2="96.1923" gradientUnits="userSpaceOnUse">
<stop stop-color="#5FC52C"/>
<stop offset="1" stop-color="#39DF3B"/>
</linearGradient>
<linearGradient id="paint35_linear_272_237" x1="147.806" y1="96.1923" x2="161.734" y2="96.1923" gradientUnits="userSpaceOnUse">
<stop stop-color="#5FC52C"/>
<stop offset="1" stop-color="#39DF3B"/>
</linearGradient>
<linearGradient id="paint36_linear_272_237" x1="26.1" y1="72.9462" x2="44.3528" y2="72.9462" gradientUnits="userSpaceOnUse">
<stop stop-color="#F78000"/>
<stop offset="1" stop-color="#FBC400"/>
</linearGradient>
<linearGradient id="paint37_linear_272_237" x1="40.2786" y1="77.6396" x2="54.2069" y2="77.6396" gradientUnits="userSpaceOnUse">
<stop stop-color="#5FC52C"/>
<stop offset="1" stop-color="#39DF3B"/>
</linearGradient>
<linearGradient id="paint38_linear_272_237" x1="328.512" y1="12.3315" x2="346.764" y2="12.3315" gradientUnits="userSpaceOnUse">
<stop stop-color="#F78000"/>
<stop offset="1" stop-color="#FBC400"/>
</linearGradient>
<linearGradient id="paint39_linear_272_237" x1="342.69" y1="17.0265" x2="356.618" y2="17.0265" gradientUnits="userSpaceOnUse">
<stop stop-color="#5FC52C"/>
<stop offset="1" stop-color="#39DF3B"/>
</linearGradient>
<linearGradient id="paint40_linear_272_237" x1="308.973" y1="17.0265" x2="322.904" y2="17.0265" gradientUnits="userSpaceOnUse">
<stop stop-color="#5FC52C"/>
<stop offset="1" stop-color="#39DF3B"/>
</linearGradient>
<linearGradient id="paint41_linear_272_237" x1="46.2095" y1="248.948" x2="59.279" y2="248.948" gradientUnits="userSpaceOnUse">
<stop stop-color="#5FC52C"/>
<stop offset="1" stop-color="#39DF3B"/>
</linearGradient>
<linearGradient id="paint42_linear_272_237" x1="210.002" y1="267.264" x2="223.072" y2="267.264" gradientUnits="userSpaceOnUse">
<stop stop-color="#5FC52C"/>
<stop offset="1" stop-color="#39DF3B"/>
</linearGradient>
<linearGradient id="paint43_linear_272_237" x1="186.409" y1="131.108" x2="199.481" y2="131.108" gradientUnits="userSpaceOnUse">
<stop stop-color="#5FC52C"/>
<stop offset="1" stop-color="#39DF3B"/>
</linearGradient>
<linearGradient id="paint44_linear_272_237" x1="290.02" y1="150.364" x2="300.216" y2="150.364" gradientUnits="userSpaceOnUse">
<stop stop-color="#5FC52C"/>
<stop offset="1" stop-color="#39DF3B"/>
</linearGradient>
<linearGradient id="paint45_linear_272_237" x1="41.1301" y1="207.098" x2="58.9087" y2="207.098" gradientUnits="userSpaceOnUse">
<stop stop-color="#F78000"/>
<stop offset="1" stop-color="#FBC400"/>
</linearGradient>
<linearGradient id="paint46_linear_272_237" x1="54.943" y1="211.67" x2="68.508" y2="211.67" gradientUnits="userSpaceOnUse">
<stop stop-color="#5FC52C"/>
<stop offset="1" stop-color="#39DF3B"/>
</linearGradient>
<linearGradient id="paint47_linear_272_237" x1="159.642" y1="235.196" x2="171.091" y2="235.196" gradientUnits="userSpaceOnUse">
<stop stop-color="#F78000"/>
<stop offset="1" stop-color="#FBC400"/>
</linearGradient>
<linearGradient id="paint48_linear_272_237" x1="168.536" y1="238.142" x2="177.276" y2="238.142" gradientUnits="userSpaceOnUse">
<stop stop-color="#5FC52C"/>
<stop offset="1" stop-color="#39DF3B"/>
</linearGradient>
<linearGradient id="paint49_linear_272_237" x1="352.148" y1="145.601" x2="363.597" y2="145.601" gradientUnits="userSpaceOnUse">
<stop stop-color="#F78000"/>
<stop offset="1" stop-color="#FBC400"/>
</linearGradient>
<linearGradient id="paint50_linear_272_237" x1="361.042" y1="148.546" x2="369.782" y2="148.546" gradientUnits="userSpaceOnUse">
<stop stop-color="#5FC52C"/>
<stop offset="1" stop-color="#39DF3B"/>
</linearGradient>
<linearGradient id="paint51_linear_272_237" x1="214.254" y1="18.3639" x2="225.705" y2="18.3639" gradientUnits="userSpaceOnUse">
<stop stop-color="#F78000"/>
<stop offset="1" stop-color="#FBC400"/>
</linearGradient>
<linearGradient id="paint52_linear_272_237" x1="223.15" y1="21.3092" x2="231.891" y2="21.3092" gradientUnits="userSpaceOnUse">
<stop stop-color="#5FC52C"/>
<stop offset="1" stop-color="#39DF3B"/>
</linearGradient>
<linearGradient id="paint53_linear_272_237" x1="258.671" y1="35.1764" x2="274.813" y2="35.1764" gradientUnits="userSpaceOnUse">
<stop stop-color="#F78000"/>
<stop offset="1" stop-color="#FBC400"/>
</linearGradient>
<linearGradient id="paint54_linear_272_237" x1="271.213" y1="39.3281" x2="283.53" y2="39.3281" gradientUnits="userSpaceOnUse">
<stop stop-color="#5FC52C"/>
<stop offset="1" stop-color="#39DF3B"/>
</linearGradient>
</defs>
</svg>
