<svg width="637" height="376" viewBox="0 0 637 376" fill="none" xmlns="http://www.w3.org/2000/svg">
<path d="M488.887 289.128H186.559C169.394 289.128 155.429 275.163 155.429 257.995C155.429 253.708 151.934 250.212 147.646 250.212H134.907C124.763 250.212 115.231 245.253 109.408 236.946L78.1816 192.396C74.0012 186.436 73.4908 178.723 76.8519 172.266C80.213 165.81 86.8209 161.8 94.0971 161.8H149.375C162.836 161.8 175.465 168.999 182.324 180.583L200.668 211.579C203.898 217.031 210.784 218.925 216.345 215.886C221.845 212.885 223.997 206.122 221.254 200.491L207.88 173.076C203.293 163.667 203.864 152.748 209.414 143.874C214.958 134.992 224.524 129.694 234.99 129.694H400.381C409.434 129.694 416.8 122.331 416.8 113.278V104.175C416.8 88.6728 429.412 76.0646 444.908 76.0646C460.41 76.0646 473.019 88.6728 473.019 104.175V109.353C473.019 111.515 474.775 113.278 476.94 113.278C479.106 113.278 480.862 111.519 480.862 109.353V42.9844C480.862 33.6869 485.446 25.0072 493.125 19.7658C500.807 14.5278 510.555 13.4198 519.221 16.8077L588.242 43.8171C607.233 51.2477 619.506 69.2249 619.506 89.6197V158.513C619.502 230.54 560.907 289.128 488.887 289.128ZM101.615 185.153L128.53 223.552C129.988 225.631 132.368 226.87 134.903 226.87H147.643C164.807 226.87 178.772 240.834 178.772 257.999C178.772 262.29 182.264 265.782 186.555 265.782H488.884C548.027 265.782 596.146 217.666 596.146 158.52V89.6264C596.146 78.9153 589.699 69.4734 579.723 65.5684L510.702 38.5556C508.678 37.7565 507.052 38.5253 506.283 39.0559C505.508 39.5864 504.205 40.8019 504.205 42.9878V109.356C504.205 124.396 491.973 136.631 476.934 136.631C461.895 136.631 449.662 124.396 449.662 109.356V104.179C449.662 101.553 447.527 99.4175 444.901 99.4175C442.279 99.4175 440.143 101.553 440.143 104.179V113.281C440.143 135.207 422.3 153.047 400.374 153.047H234.984C231.579 153.047 229.809 155.286 229.205 156.25C228.604 157.21 227.368 159.782 228.859 162.845L242.226 190.257C250.456 207.123 243.999 227.383 227.529 236.379C210.875 245.481 190.242 239.814 180.568 223.475L162.218 192.48C159.542 187.96 154.617 185.15 149.365 185.15L101.615 185.153Z" fill="url(#paint0_linear_153_170)"/>
<path d="M488.887 278.185H186.559C181.112 278.185 176.002 276.04 172.171 272.145C168.343 268.253 166.281 263.109 166.372 257.663C166.449 252.925 164.619 248.409 161.218 244.951C157.662 241.341 152.719 239.269 147.643 239.269H134.9C128.329 239.269 122.151 236.053 118.37 230.667L90.6488 191.12C88.1003 187.487 87.8014 182.971 89.853 179.032C91.8978 175.093 95.7726 172.743 100.212 172.743H149.375C158.988 172.743 168.004 177.88 172.903 186.157L191.253 217.152C195.383 224.136 202.649 228.307 210.684 228.307C214.733 228.307 218.608 227.242 222.204 225.147C232.354 219.224 236.132 206.035 230.813 195.119L217.721 168.277C214.377 161.411 215.344 153.463 220.24 147.533C223.863 143.152 229.47 140.637 235.625 140.637H400.381C415.471 140.637 427.746 128.364 427.746 113.275V104.904C427.746 95.7608 434.532 87.934 443.195 87.0879C453.386 86.1141 462.076 94.1391 462.076 104.169V108.654C462.076 116.606 467.952 123.412 475.453 124.144C484.29 125.017 491.808 118.036 491.808 109.35V43.807C491.808 38.1089 495.445 31.1954 499.914 28.4018C504.47 25.5544 510.205 25.0172 515.265 27.0117L584.249 54.011C599.017 59.7863 608.556 73.7611 608.556 89.6196V158.513C608.556 224.502 554.873 278.185 488.887 278.185ZM100.215 174.207C96.33 174.207 92.9421 176.262 91.149 179.707C89.3627 183.152 89.618 187.107 91.8508 190.284L119.572 229.831C123.078 234.827 128.809 237.809 134.903 237.809H147.646C153.109 237.809 158.438 240.038 162.262 243.927C165.942 247.667 167.916 252.553 167.836 257.686C167.755 262.74 169.662 267.511 173.218 271.121C176.774 274.734 181.512 276.725 186.565 276.725H488.894C554.07 276.725 607.099 223.696 607.099 158.516V89.6229C607.099 74.3689 597.926 60.9279 583.726 55.3742L514.735 28.3749C510.098 26.5449 504.863 27.0385 500.693 29.6441C496.667 32.159 493.269 38.6495 493.269 43.8137V109.356C493.269 118.899 485.006 126.521 475.312 125.604C467.069 124.798 460.615 117.354 460.615 108.661V104.175C460.615 94.9986 452.714 87.615 443.336 88.5451C435.416 89.3174 429.207 96.5062 429.207 104.907V113.278C429.207 129.17 416.277 142.101 400.381 142.101H235.625C229.907 142.101 224.709 144.421 221.368 148.467C216.835 153.947 215.945 161.293 219.034 167.639L232.126 194.481C237.78 206.078 233.744 220.1 222.943 226.406C219.122 228.636 215.005 229.767 210.687 229.767C202.132 229.767 194.395 225.328 190 217.894L171.65 186.896C167.013 179.066 158.478 174.2 149.379 174.2H100.215V174.207Z" fill="white"/>
<path d="M269.739 118.022H400.378C402.997 118.022 405.122 115.894 405.122 113.278V104.175C405.122 82.2359 422.972 64.3897 444.908 64.3897C454.041 64.3897 462.465 67.4821 469.184 72.6764V45.0895C425.399 44.4952 378.113 45.6804 337.353 47.8562C237.166 53.2017 217.201 84.687 269.739 118.022Z" fill="url(#paint1_linear_153_170)"/>
<path d="M607.592 236.849C582.097 275.348 538.42 300.807 488.887 300.807H186.559C164.263 300.807 145.897 283.676 143.926 261.891H134.9C120.952 261.891 107.844 255.071 99.8455 243.648L96.8572 239.387C67.0507 245.532 -5.12006 262.633 0.487326 283.269C7.48145 309.006 145.692 301.753 190.447 312.401C235.198 323.048 129.155 350.42 128.181 369.327C127.207 388.235 503.722 360.886 602.955 296.243C653.513 263.311 640.428 246.153 607.592 236.849Z" fill="url(#paint2_linear_153_170)"/>
<path d="M233.137 246.623C255.093 234.629 263.699 207.62 252.729 185.137L242.77 164.722H400.378C421.176 164.722 439.133 152.315 447.228 134.516C454.38 142.947 465.047 148.302 476.937 148.302C498.416 148.302 515.887 130.832 515.887 109.356V53.1213L575.476 76.4406C580.946 78.5795 584.478 83.7537 584.478 89.6264V158.52C584.478 211.229 541.597 254.107 488.891 254.107H214.894C214.894 254.107 225.165 251.236 233.137 246.623ZM164.035 218.455C158.982 216.353 153.448 215.191 147.643 215.191H136.928L124.055 196.828H149.375C150.507 196.828 151.605 197.456 152.182 198.43L164.035 218.455Z" fill="url(#paint3_linear_153_170)"/>
<path d="M346.661 102.865H344.623V114.728H346.661V102.865Z" fill="#A97C50"/>
<path d="M345.64 66.6694L335.141 105.172H345.64H356.14L345.64 66.6694Z" fill="url(#paint4_linear_153_170)"/>
<path d="M359.007 106.099H357.527V114.729H359.007V106.099Z" fill="#A97C50"/>
<path d="M358.269 79.7644L350.633 107.778H358.269H365.904L358.269 79.7644Z" fill="url(#paint5_linear_153_170)"/>
<path d="M343.209 327.345H341.171V339.211H343.209V327.345Z" fill="#A97C50"/>
<path d="M342.192 291.15L331.692 329.653H342.192H352.692L342.192 291.15Z" fill="url(#paint6_linear_153_170)"/>
<path d="M355.559 330.578H354.078V339.211H355.559V330.578Z" fill="#A97C50"/>
<path d="M354.82 304.243L347.182 332.257H354.82H362.456L354.82 304.243Z" fill="url(#paint7_linear_153_170)"/>
<path d="M117.061 285.069H115.019V296.932H117.061V285.069Z" fill="#A97C50"/>
<path d="M116.04 248.869L105.537 287.375H116.04H126.539L116.04 248.869Z" fill="url(#paint8_linear_153_170)"/>
<path d="M129.41 288.302H127.926V296.931H129.41V288.302Z" fill="#A97C50"/>
<path d="M128.668 261.967L121.033 289.977H128.668H136.31L128.668 261.967Z" fill="url(#paint9_linear_153_170)"/>
<path d="M551.828 117.338H549.789V129.204H551.828V117.338Z" fill="#A97C50"/>
<path d="M550.81 81.1414L540.31 119.644H550.81H561.306L550.81 81.1414Z" fill="url(#paint10_linear_153_170)"/>
<path d="M564.177 120.57H562.693V129.203H564.177V120.57Z" fill="#A97C50"/>
<path d="M563.438 94.2361L555.796 122.249H563.438H571.074L563.438 94.2361Z" fill="url(#paint11_linear_153_170)"/>
<path d="M613.012 246.565H610.974V258.431H613.012V246.565Z" fill="#A97C50"/>
<path d="M611.994 210.366L601.492 248.869H611.994H622.491L611.994 210.366Z" fill="url(#paint12_linear_153_170)"/>
<path d="M625.358 249.8H623.877V258.432H625.358V249.8Z" fill="#A97C50"/>
<path d="M624.623 223.461L616.984 251.478H624.623H632.262L624.623 223.461Z" fill="url(#paint13_linear_153_170)"/>
<path d="M316.462 224.674H314.034V238.783H316.462V224.674Z" fill="#A97C50"/>
<path d="M315.246 181.631L302.766 227.417H315.246H327.734L315.246 181.631Z" fill="url(#paint14_linear_153_170)"/>
<path d="M331.145 228.517H329.382V238.782H331.145V228.517Z" fill="#A97C50"/>
<path d="M330.262 197.204L321.179 230.512H330.262H339.348L330.262 197.204Z" fill="url(#paint15_linear_153_170)"/>
<path d="M288.193 228.517H286.434V238.782H288.193V228.517Z" fill="#A97C50"/>
<path d="M287.313 197.204L278.231 230.512H287.313H296.396L287.313 197.204Z" fill="url(#paint16_linear_153_170)"/>
<path d="M251.208 346.494H248.277V363.547H251.208V346.494Z" fill="#A97C50"/>
<path d="M249.744 294.47L234.654 349.809H249.744H264.837L249.744 294.47Z" fill="url(#paint17_linear_153_170)"/>
<path d="M268.96 351.145H266.828V363.548H268.96V351.145Z" fill="#A97C50"/>
<path d="M267.892 313.293L256.916 353.552H267.892H278.872L267.892 313.293Z" fill="url(#paint18_linear_153_170)"/>
<path d="M217.05 351.145H214.914V363.548H217.05V351.145Z" fill="#A97C50"/>
<path d="M215.979 313.293L205.002 353.552H215.979H226.962L215.979 313.293Z" fill="url(#paint19_linear_153_170)"/>
<path d="M414.205 43.4309H411.781V57.54H414.205V43.4309Z" fill="#A97C50"/>
<path d="M412.996 0.38501L400.509 46.1708H412.996H425.477L412.996 0.38501Z" fill="url(#paint20_linear_153_170)"/>
<path d="M428.892 47.2715H427.129V57.536H428.892V47.2715Z" fill="#A97C50"/>
<path d="M428.008 15.9581L418.926 49.27H428.008H437.094L428.008 15.9581Z" fill="url(#paint21_linear_153_170)"/>
<path d="M385.94 47.2715H384.177V57.536H385.94V47.2715Z" fill="#A97C50"/>
<path d="M385.06 15.9581L375.977 49.27H385.06H394.143L385.06 15.9581Z" fill="url(#paint22_linear_153_170)"/>
<path d="M310.844 54.7056H308.793V66.6691H310.844V54.7056Z" fill="#A97C50"/>
<path d="M319.363 45.9391C319.363 53.0642 315.092 58.8395 309.817 58.8395C304.545 58.8395 300.271 53.0642 300.271 45.9391C300.271 38.8141 304.542 33.0388 309.817 33.0388C315.092 33.0355 319.363 38.8141 319.363 45.9391Z" fill="url(#paint23_linear_153_170)"/>
<path d="M323.174 57.5361H321.606V66.6657H323.174V57.5361Z" fill="#A97C50"/>
<path d="M322.391 60.6933C326.416 60.6933 329.678 56.2856 329.678 50.8485C329.678 45.4114 326.416 41.0037 322.391 41.0037C318.367 41.0037 315.105 45.4114 315.105 50.8485C315.105 56.2856 318.367 60.6933 322.391 60.6933Z" fill="url(#paint24_linear_153_170)"/>
<path d="M287.908 57.5361H286.336V66.6657H287.908V57.5361Z" fill="#A97C50"/>
<path d="M294.405 50.8485C294.405 56.288 291.145 60.6933 287.119 60.6933C283.1 60.6933 279.836 56.2846 279.836 50.8485C279.836 45.4124 283.1 41.0037 287.119 41.0037C291.148 41.0037 294.405 45.4124 294.405 50.8485Z" fill="url(#paint25_linear_153_170)"/>
<path d="M412.264 198.309H409.615V213.717H412.264V198.309Z" fill="#A97C50"/>
<path d="M423.237 187.017C423.237 196.194 417.73 203.634 410.941 203.634C404.148 203.634 398.649 196.194 398.649 187.017C398.649 177.84 404.152 170.403 410.941 170.403C417.73 170.403 423.237 177.84 423.237 187.017Z" fill="url(#paint26_linear_153_170)"/>
<path d="M428.139 201.956H426.121V213.715H428.139V201.956Z" fill="#A97C50"/>
<path d="M436.517 193.343C436.517 200.347 432.316 206.022 427.132 206.022C421.951 206.022 417.751 200.344 417.751 193.343C417.751 186.339 421.951 180.664 427.132 180.664C432.316 180.661 436.517 186.339 436.517 193.343Z" fill="url(#paint27_linear_153_170)"/>
<path d="M382.723 201.956H380.702V213.715H382.723V201.956Z" fill="#A97C50"/>
<path d="M391.09 193.343C391.09 200.347 386.887 206.022 381.709 206.022C376.525 206.022 372.327 200.344 372.327 193.343C372.327 186.339 376.525 180.664 381.709 180.664C386.887 180.661 391.09 186.339 391.09 193.343Z" fill="url(#paint28_linear_153_170)"/>
<path d="M59.2641 260.859H56.6149V276.267H59.2641V260.859Z" fill="#A97C50"/>
<path d="M70.2372 249.571C70.2372 258.747 64.7305 266.185 57.9412 266.185C51.1552 266.185 45.6487 258.747 45.6487 249.571C45.6487 240.394 51.1552 232.953 57.9412 232.953C64.7305 232.953 70.2372 240.394 70.2372 249.571Z" fill="url(#paint29_linear_153_170)"/>
<path d="M75.1428 264.508H73.1215V276.27H75.1428V264.508Z" fill="#A97C50"/>
<path d="M83.5169 255.896C83.5169 262.897 79.3165 268.575 74.1322 268.575C68.9512 268.575 64.7507 262.897 64.7507 255.896C64.7507 248.892 68.9512 243.214 74.1322 243.214C79.3165 243.214 83.5169 248.892 83.5169 255.896Z" fill="url(#paint30_linear_153_170)"/>
<path d="M29.7196 264.508H27.7016V276.27H29.7196V264.508Z" fill="#A97C50"/>
<path d="M38.0938 255.896C38.0938 262.897 33.8966 268.575 28.7123 268.575C23.5314 268.575 19.3308 262.897 19.3308 255.896C19.3308 248.892 23.5314 243.214 28.7123 243.214C33.8966 243.214 38.0938 248.892 38.0938 255.896Z" fill="url(#paint31_linear_153_170)"/>
<path d="M470.067 235.198H468.308V245.463H470.067V235.198Z" fill="#A97C50"/>
<path d="M469.184 203.885L460.101 237.194H469.184H478.267L469.184 203.885Z" fill="url(#paint32_linear_153_170)"/>
<path d="M522.259 187.879H519.61V203.287H522.259V187.879Z" fill="#A97C50"/>
<path d="M533.226 176.588C533.226 185.764 527.722 193.205 520.933 193.205C514.144 193.205 508.637 185.764 508.637 176.588C508.637 167.411 514.144 159.974 520.933 159.974C527.726 159.974 533.226 167.411 533.226 176.588Z" fill="url(#paint33_linear_153_170)"/>
<path d="M538.135 191.529H536.113V203.288H538.135V191.529Z" fill="#A97C50"/>
<path d="M546.509 182.913C546.509 189.917 542.308 195.595 537.127 195.595C531.946 195.595 527.743 189.917 527.743 182.913C527.743 175.909 531.946 170.231 537.127 170.231C542.308 170.231 546.509 175.909 546.509 182.913Z" fill="url(#paint34_linear_153_170)"/>
<path d="M425.399 319.542H422.75V334.95H425.399V319.542Z" fill="#A97C50"/>
<path d="M436.373 308.251C436.373 317.427 430.866 324.868 424.076 324.868C417.287 324.868 411.784 317.427 411.784 308.251C411.784 299.074 417.287 291.633 424.076 291.633C430.866 291.637 436.373 299.074 436.373 308.251Z" fill="url(#paint35_linear_153_170)"/>
<path d="M441.275 323.196H439.257V334.951H441.275V323.196Z" fill="#A97C50"/>
<path d="M449.652 314.577C449.652 321.578 445.452 327.255 440.268 327.255C435.087 327.255 430.886 321.578 430.886 314.577C430.886 307.572 435.087 301.898 440.268 301.898C445.452 301.898 449.652 307.572 449.652 314.577Z" fill="url(#paint36_linear_153_170)"/>
<path d="M286.802 263.184V291.724H294.588V263.184H286.802Z" fill="white"/>
<path d="M289.399 289.132V291.727H286.803V289.132H289.399Z" fill="url(#paint37_linear_153_170)"/>
<path d="M294.59 289.132V291.727H291.994V289.132H294.59Z" fill="url(#paint38_linear_153_170)"/>
<path d="M291.994 286.536V289.131H289.399V286.536H291.994Z" fill="url(#paint39_linear_153_170)"/>
<path d="M289.399 283.944V286.537H286.803V283.944H289.399Z" fill="url(#paint40_linear_153_170)"/>
<path d="M294.59 283.944V286.537H291.994V283.944H294.59Z" fill="url(#paint41_linear_153_170)"/>
<path d="M291.994 281.348V283.943H289.399V281.348H291.994Z" fill="url(#paint42_linear_153_170)"/>
<path d="M289.399 278.756V281.348H286.803V278.756H289.399Z" fill="url(#paint43_linear_153_170)"/>
<path d="M294.59 278.756V281.348H291.994V278.756H294.59Z" fill="url(#paint44_linear_153_170)"/>
<path d="M291.994 276.16V278.756H289.399V276.16H291.994Z" fill="url(#paint45_linear_153_170)"/>
<path d="M289.399 273.565V276.161H286.803V273.565H289.399Z" fill="url(#paint46_linear_153_170)"/>
<path d="M294.59 273.565V276.161H291.994V273.565H294.59Z" fill="url(#paint47_linear_153_170)"/>
<path d="M291.994 270.969V273.565H289.399V270.969H291.994Z" fill="url(#paint48_linear_153_170)"/>
<path d="M289.399 268.374V270.97H286.803V268.374H289.399Z" fill="url(#paint49_linear_153_170)"/>
<path d="M294.59 268.374V270.97H291.994V268.374H294.59Z" fill="url(#paint50_linear_153_170)"/>
<path d="M291.994 265.778V268.374H289.399V265.778H291.994Z" fill="url(#paint51_linear_153_170)"/>
<path d="M289.398 263.186V265.778H286.802V263.186H289.398Z" fill="url(#paint52_linear_153_170)"/>
<path d="M294.59 263.186V265.778H291.994V263.186H294.59Z" fill="url(#paint53_linear_153_170)"/>
<defs>
<linearGradient id="paint0_linear_153_170" x1="74.6476" y1="152.004" x2="619.502" y2="152.004" gradientUnits="userSpaceOnUse">
<stop stop-color="#231F20"/>
<stop offset="1" stop-color="#58595B"/>
</linearGradient>
<linearGradient id="paint1_linear_153_170" x1="241.543" y1="81.4801" x2="469.185" y2="81.4801" gradientUnits="userSpaceOnUse">
<stop stop-color="#399D27"/>
<stop offset="1" stop-color="#5FC52C"/>
</linearGradient>
<linearGradient id="paint2_linear_153_170" x1="0.179424" y1="306.025" x2="636.626" y2="306.025" gradientUnits="userSpaceOnUse">
<stop stop-color="#399D27"/>
<stop offset="1" stop-color="#5FC52C"/>
</linearGradient>
<linearGradient id="paint3_linear_153_170" x1="124.055" y1="153.614" x2="584.475" y2="153.614" gradientUnits="userSpaceOnUse">
<stop stop-color="#399D27"/>
<stop offset="1" stop-color="#5FC52C"/>
</linearGradient>
<linearGradient id="paint4_linear_153_170" x1="335.142" y1="85.9196" x2="356.141" y2="85.9196" gradientUnits="userSpaceOnUse">
<stop stop-color="#F78000"/>
<stop offset="1" stop-color="#FBC400"/>
</linearGradient>
<linearGradient id="paint5_linear_153_170" x1="350.632" y1="93.7714" x2="365.906" y2="93.7714" gradientUnits="userSpaceOnUse">
<stop stop-color="#5FC52C"/>
<stop offset="1" stop-color="#39DF3B"/>
</linearGradient>
<linearGradient id="paint6_linear_153_170" x1="331.692" y1="310.401" x2="352.691" y2="310.401" gradientUnits="userSpaceOnUse">
<stop stop-color="#F78000"/>
<stop offset="1" stop-color="#FBC400"/>
</linearGradient>
<linearGradient id="paint7_linear_153_170" x1="347.183" y1="318.25" x2="362.456" y2="318.25" gradientUnits="userSpaceOnUse">
<stop stop-color="#5FC52C"/>
<stop offset="1" stop-color="#39DF3B"/>
</linearGradient>
<linearGradient id="paint8_linear_153_170" x1="105.539" y1="268.122" x2="126.541" y2="268.122" gradientUnits="userSpaceOnUse">
<stop stop-color="#F78000"/>
<stop offset="1" stop-color="#FBC400"/>
</linearGradient>
<linearGradient id="paint9_linear_153_170" x1="121.032" y1="275.973" x2="136.309" y2="275.973" gradientUnits="userSpaceOnUse">
<stop stop-color="#5FC52C"/>
<stop offset="1" stop-color="#39DF3B"/>
</linearGradient>
<linearGradient id="paint10_linear_153_170" x1="540.31" y1="100.392" x2="561.306" y2="100.392" gradientUnits="userSpaceOnUse">
<stop stop-color="#F78000"/>
<stop offset="1" stop-color="#FBC400"/>
</linearGradient>
<linearGradient id="paint11_linear_153_170" x1="555.797" y1="108.242" x2="571.074" y2="108.242" gradientUnits="userSpaceOnUse">
<stop stop-color="#5FC52C"/>
<stop offset="1" stop-color="#39DF3B"/>
</linearGradient>
<linearGradient id="paint12_linear_153_170" x1="601.493" y1="229.618" x2="622.492" y2="229.618" gradientUnits="userSpaceOnUse">
<stop stop-color="#F78000"/>
<stop offset="1" stop-color="#FBC400"/>
</linearGradient>
<linearGradient id="paint13_linear_153_170" x1="616.983" y1="237.469" x2="632.26" y2="237.469" gradientUnits="userSpaceOnUse">
<stop stop-color="#5FC52C"/>
<stop offset="1" stop-color="#39DF3B"/>
</linearGradient>
<linearGradient id="paint14_linear_153_170" x1="302.765" y1="204.524" x2="327.735" y2="204.524" gradientUnits="userSpaceOnUse">
<stop stop-color="#F78000"/>
<stop offset="1" stop-color="#FBC400"/>
</linearGradient>
<linearGradient id="paint15_linear_153_170" x1="321.18" y1="213.859" x2="339.349" y2="213.859" gradientUnits="userSpaceOnUse">
<stop stop-color="#5FC52C"/>
<stop offset="1" stop-color="#39DF3B"/>
</linearGradient>
<linearGradient id="paint16_linear_153_170" x1="278.231" y1="213.859" x2="296.397" y2="213.859" gradientUnits="userSpaceOnUse">
<stop stop-color="#5FC52C"/>
<stop offset="1" stop-color="#39DF3B"/>
</linearGradient>
<linearGradient id="paint17_linear_153_170" x1="234.653" y1="322.139" x2="264.837" y2="322.139" gradientUnits="userSpaceOnUse">
<stop stop-color="#F78000"/>
<stop offset="1" stop-color="#FBC400"/>
</linearGradient>
<linearGradient id="paint18_linear_153_170" x1="256.918" y1="333.423" x2="278.874" y2="333.423" gradientUnits="userSpaceOnUse">
<stop stop-color="#5FC52C"/>
<stop offset="1" stop-color="#39DF3B"/>
</linearGradient>
<linearGradient id="paint19_linear_153_170" x1="205.004" y1="333.423" x2="226.961" y2="333.423" gradientUnits="userSpaceOnUse">
<stop stop-color="#5FC52C"/>
<stop offset="1" stop-color="#39DF3B"/>
</linearGradient>
<linearGradient id="paint20_linear_153_170" x1="400.509" y1="23.2786" x2="425.476" y2="23.2786" gradientUnits="userSpaceOnUse">
<stop stop-color="#F78000"/>
<stop offset="1" stop-color="#FBC400"/>
</linearGradient>
<linearGradient id="paint21_linear_153_170" x1="418.927" y1="32.6147" x2="437.093" y2="32.6147" gradientUnits="userSpaceOnUse">
<stop stop-color="#5FC52C"/>
<stop offset="1" stop-color="#39DF3B"/>
</linearGradient>
<linearGradient id="paint22_linear_153_170" x1="375.979" y1="32.6147" x2="394.141" y2="32.6147" gradientUnits="userSpaceOnUse">
<stop stop-color="#5FC52C"/>
<stop offset="1" stop-color="#39DF3B"/>
</linearGradient>
<linearGradient id="paint23_linear_153_170" x1="300.273" y1="45.9382" x2="319.363" y2="45.9382" gradientUnits="userSpaceOnUse">
<stop stop-color="#F78000"/>
<stop offset="1" stop-color="#FBC400"/>
</linearGradient>
<linearGradient id="paint24_linear_153_170" x1="315.104" y1="50.8488" x2="329.676" y2="50.8488" gradientUnits="userSpaceOnUse">
<stop stop-color="#5FC52C"/>
<stop offset="1" stop-color="#39DF3B"/>
</linearGradient>
<linearGradient id="paint25_linear_153_170" x1="279.838" y1="50.8488" x2="294.407" y2="50.8488" gradientUnits="userSpaceOnUse">
<stop stop-color="#5FC52C"/>
<stop offset="1" stop-color="#39DF3B"/>
</linearGradient>
<linearGradient id="paint26_linear_153_170" x1="398.646" y1="187.018" x2="423.236" y2="187.018" gradientUnits="userSpaceOnUse">
<stop stop-color="#F78000"/>
<stop offset="1" stop-color="#FBC400"/>
</linearGradient>
<linearGradient id="paint27_linear_153_170" x1="417.75" y1="193.342" x2="436.516" y2="193.342" gradientUnits="userSpaceOnUse">
<stop stop-color="#5FC52C"/>
<stop offset="1" stop-color="#39DF3B"/>
</linearGradient>
<linearGradient id="paint28_linear_153_170" x1="372.329" y1="193.342" x2="391.092" y2="193.342" gradientUnits="userSpaceOnUse">
<stop stop-color="#5FC52C"/>
<stop offset="1" stop-color="#39DF3B"/>
</linearGradient>
<linearGradient id="paint29_linear_153_170" x1="45.6473" y1="249.57" x2="70.2365" y2="249.57" gradientUnits="userSpaceOnUse">
<stop stop-color="#F78000"/>
<stop offset="1" stop-color="#FBC400"/>
</linearGradient>
<linearGradient id="paint30_linear_153_170" x1="64.7507" y1="255.894" x2="83.5166" y2="255.894" gradientUnits="userSpaceOnUse">
<stop stop-color="#5FC52C"/>
<stop offset="1" stop-color="#39DF3B"/>
</linearGradient>
<linearGradient id="paint31_linear_153_170" x1="19.3298" y1="255.894" x2="38.0925" y2="255.894" gradientUnits="userSpaceOnUse">
<stop stop-color="#5FC52C"/>
<stop offset="1" stop-color="#39DF3B"/>
</linearGradient>
<linearGradient id="paint32_linear_153_170" x1="460.102" y1="220.538" x2="478.268" y2="220.538" gradientUnits="userSpaceOnUse">
<stop stop-color="#5FC52C"/>
<stop offset="1" stop-color="#39DF3B"/>
</linearGradient>
<linearGradient id="paint33_linear_153_170" x1="508.638" y1="176.591" x2="533.227" y2="176.591" gradientUnits="userSpaceOnUse">
<stop stop-color="#F78000"/>
<stop offset="1" stop-color="#FBC400"/>
</linearGradient>
<linearGradient id="paint34_linear_153_170" x1="527.742" y1="182.914" x2="546.508" y2="182.914" gradientUnits="userSpaceOnUse">
<stop stop-color="#5FC52C"/>
<stop offset="1" stop-color="#39DF3B"/>
</linearGradient>
<linearGradient id="paint35_linear_153_170" x1="411.782" y1="308.252" x2="436.372" y2="308.252" gradientUnits="userSpaceOnUse">
<stop stop-color="#F78000"/>
<stop offset="1" stop-color="#FBC400"/>
</linearGradient>
<linearGradient id="paint36_linear_153_170" x1="430.886" y1="314.577" x2="449.652" y2="314.577" gradientUnits="userSpaceOnUse">
<stop stop-color="#5FC52C"/>
<stop offset="1" stop-color="#39DF3B"/>
</linearGradient>
<linearGradient id="paint37_linear_153_170" x1="286.803" y1="290.429" x2="289.4" y2="290.429" gradientUnits="userSpaceOnUse">
<stop stop-color="#231F20"/>
<stop offset="1" stop-color="#58595B"/>
</linearGradient>
<linearGradient id="paint38_linear_153_170" x1="291.993" y1="290.429" x2="294.59" y2="290.429" gradientUnits="userSpaceOnUse">
<stop stop-color="#231F20"/>
<stop offset="1" stop-color="#58595B"/>
</linearGradient>
<linearGradient id="paint39_linear_153_170" x1="289.4" y1="287.834" x2="291.993" y2="287.834" gradientUnits="userSpaceOnUse">
<stop stop-color="#231F20"/>
<stop offset="1" stop-color="#58595B"/>
</linearGradient>
<linearGradient id="paint40_linear_153_170" x1="286.803" y1="285.24" x2="289.4" y2="285.24" gradientUnits="userSpaceOnUse">
<stop stop-color="#231F20"/>
<stop offset="1" stop-color="#58595B"/>
</linearGradient>
<linearGradient id="paint41_linear_153_170" x1="291.993" y1="285.24" x2="294.59" y2="285.24" gradientUnits="userSpaceOnUse">
<stop stop-color="#231F20"/>
<stop offset="1" stop-color="#58595B"/>
</linearGradient>
<linearGradient id="paint42_linear_153_170" x1="289.4" y1="282.644" x2="291.994" y2="282.644" gradientUnits="userSpaceOnUse">
<stop stop-color="#231F20"/>
<stop offset="1" stop-color="#58595B"/>
</linearGradient>
<linearGradient id="paint43_linear_153_170" x1="286.803" y1="280.051" x2="289.4" y2="280.051" gradientUnits="userSpaceOnUse">
<stop stop-color="#231F20"/>
<stop offset="1" stop-color="#58595B"/>
</linearGradient>
<linearGradient id="paint44_linear_153_170" x1="291.993" y1="280.051" x2="294.59" y2="280.051" gradientUnits="userSpaceOnUse">
<stop stop-color="#231F20"/>
<stop offset="1" stop-color="#58595B"/>
</linearGradient>
<linearGradient id="paint45_linear_153_170" x1="289.4" y1="277.457" x2="291.994" y2="277.457" gradientUnits="userSpaceOnUse">
<stop stop-color="#231F20"/>
<stop offset="1" stop-color="#58595B"/>
</linearGradient>
<linearGradient id="paint46_linear_153_170" x1="286.803" y1="274.862" x2="289.4" y2="274.862" gradientUnits="userSpaceOnUse">
<stop stop-color="#231F20"/>
<stop offset="1" stop-color="#58595B"/>
</linearGradient>
<linearGradient id="paint47_linear_153_170" x1="291.993" y1="274.862" x2="294.59" y2="274.862" gradientUnits="userSpaceOnUse">
<stop stop-color="#231F20"/>
<stop offset="1" stop-color="#58595B"/>
</linearGradient>
<linearGradient id="paint48_linear_153_170" x1="289.4" y1="272.267" x2="291.993" y2="272.267" gradientUnits="userSpaceOnUse">
<stop stop-color="#231F20"/>
<stop offset="1" stop-color="#58595B"/>
</linearGradient>
<linearGradient id="paint49_linear_153_170" x1="286.803" y1="269.672" x2="289.4" y2="269.672" gradientUnits="userSpaceOnUse">
<stop stop-color="#231F20"/>
<stop offset="1" stop-color="#58595B"/>
</linearGradient>
<linearGradient id="paint50_linear_153_170" x1="291.993" y1="269.672" x2="294.59" y2="269.672" gradientUnits="userSpaceOnUse">
<stop stop-color="#231F20"/>
<stop offset="1" stop-color="#58595B"/>
</linearGradient>
<linearGradient id="paint51_linear_153_170" x1="289.4" y1="267.077" x2="291.993" y2="267.077" gradientUnits="userSpaceOnUse">
<stop stop-color="#231F20"/>
<stop offset="1" stop-color="#58595B"/>
</linearGradient>
<linearGradient id="paint52_linear_153_170" x1="286.802" y1="264.482" x2="289.399" y2="264.482" gradientUnits="userSpaceOnUse">
<stop stop-color="#231F20"/>
<stop offset="1" stop-color="#58595B"/>
</linearGradient>
<linearGradient id="paint53_linear_153_170" x1="291.993" y1="264.482" x2="294.59" y2="264.482" gradientUnits="userSpaceOnUse">
<stop stop-color="#231F20"/>
<stop offset="1" stop-color="#58595B"/>
</linearGradient>
</defs>
</svg>
