<svg width="179" height="53" viewBox="0 0 179 53" fill="none" xmlns="http://www.w3.org/2000/svg">
<path d="M26.0466 0C11.6835 0 0 11.6835 0 26.0467C0 40.4098 11.6858 52.0933 26.0466 52.0933C40.4098 52.0933 52.0956 40.4098 52.0956 26.0467C52.0956 11.6835 40.4098 0 26.0466 0Z" fill="url(#paint0_linear_272_616)"/>
<path d="M54.4666 12.0175C56.5662 16.2561 57.7772 21.0075 57.7772 26.0442C57.7772 30.951 56.6265 35.584 54.629 39.7345H162.797L178.675 12.0151L54.4666 12.0175Z" fill="url(#paint1_linear_272_616)"/>
<path d="M41.637 16.1284H10.4539V35.9621H41.637V16.1284Z" fill="white"/>
<path d="M20.8428 16.1284H10.4469V36.7045H20.8428V16.1284Z" fill="url(#paint2_linear_272_616)"/>
<path d="M31.2364 16.1284H20.8428V36.7045H31.2364V16.1284Z" fill="url(#paint3_linear_272_616)"/>
<path d="M41.63 16.1284H31.2364V36.7045H41.63V16.1284Z" fill="url(#paint4_linear_272_616)"/>
<path d="M97.9988 17.479L95.6101 31.2261H92.9192L95.3079 17.479H97.9988ZM103.862 21.0102L103.503 23.0024H98.4331L98.7919 21.0102H103.862ZM100.388 18.4893H102.965L101.322 28.1292C101.303 28.2929 101.294 28.4534 101.294 28.6107C101.294 28.7618 101.329 28.8877 101.398 28.9884C101.473 29.0891 101.615 29.1426 101.823 29.1489C101.923 29.1489 102.024 29.1426 102.125 29.13C102.232 29.1174 102.342 29.0986 102.455 29.0734L102.238 31.1789C102.012 31.2544 101.785 31.311 101.558 31.3488C101.338 31.3866 101.108 31.4023 100.869 31.396C100.284 31.3897 99.8273 31.245 99.5 30.9617C99.1727 30.6785 98.9461 30.3102 98.8202 29.857C98.7006 29.4038 98.6692 28.916 98.7258 28.3936L100.388 18.4893ZM108.3 28.8751L109.055 24.1448C109.074 23.956 109.077 23.7672 109.064 23.5783C109.058 23.3832 109.008 23.2196 108.913 23.0874C108.819 22.9552 108.655 22.8859 108.422 22.8797C108.171 22.8734 107.969 22.9269 107.818 23.0402C107.667 23.1535 107.551 23.3014 107.469 23.4839C107.387 23.6602 107.327 23.8521 107.289 24.0599L104.712 24.0787C104.743 23.5563 104.872 23.0937 105.099 22.6908C105.326 22.288 105.621 21.9449 105.986 21.6617C106.352 21.3784 106.764 21.1644 107.223 21.0196C107.683 20.8749 108.155 20.8056 108.64 20.8119C109.319 20.8245 109.895 20.9724 110.367 21.2557C110.839 21.5389 111.186 21.9292 111.406 22.4265C111.626 22.9237 111.702 23.5122 111.633 24.192L110.906 28.7524C110.849 29.1237 110.802 29.5108 110.764 29.9137C110.726 30.3102 110.77 30.691 110.896 31.0561L110.877 31.2261L108.356 31.2355C108.243 30.8516 108.193 30.4613 108.205 30.0648C108.218 29.6619 108.249 29.2654 108.3 28.8751ZM109.291 24.9851L109.027 26.5713L108.186 26.5619C107.941 26.5682 107.714 26.6154 107.507 26.7035C107.305 26.7854 107.123 26.9049 106.959 27.0623C106.802 27.2134 106.673 27.3896 106.572 27.591C106.477 27.7862 106.418 28.0065 106.392 28.252C106.367 28.4219 106.364 28.5887 106.383 28.7524C106.408 28.916 106.468 29.0545 106.562 29.1678C106.663 29.2811 106.814 29.3409 107.016 29.3472C107.236 29.3472 107.453 29.3031 107.667 29.215C107.881 29.1206 108.06 28.9884 108.205 28.8185C108.35 28.6485 108.438 28.4471 108.47 28.2142L108.932 29.2717C108.825 29.5612 108.69 29.8382 108.526 30.1025C108.369 30.3606 108.18 30.5903 107.96 30.7918C107.739 30.9932 107.494 31.1505 107.223 31.2638C106.953 31.3834 106.644 31.4401 106.298 31.4338C105.75 31.4275 105.278 31.2859 104.882 31.0089C104.492 30.7257 104.196 30.3606 103.994 29.9137C103.799 29.4605 103.714 28.9695 103.739 28.4408C103.771 27.8302 103.909 27.3078 104.155 26.8735C104.407 26.4392 104.734 26.0835 105.137 25.8066C105.54 25.5233 105.996 25.3156 106.506 25.1834C107.022 25.0449 107.56 24.9757 108.12 24.9757L109.291 24.9851ZM117.571 16.7237L115.05 31.2261H112.463L114.975 16.7237H117.571ZM119.724 29.9231L123.302 21.0102H126.125L120.857 32.7651C120.712 33.1113 120.545 33.4386 120.357 33.747C120.168 34.0617 119.951 34.3418 119.705 34.5873C119.46 34.8328 119.176 35.0248 118.855 35.1632C118.534 35.308 118.169 35.3804 117.76 35.3804C117.559 35.3804 117.364 35.3584 117.175 35.3143C116.986 35.2765 116.797 35.2325 116.608 35.1821L116.825 33.1144C116.876 33.1144 116.926 33.1176 116.977 33.1238C117.027 33.1364 117.077 33.1396 117.128 33.1333C117.405 33.1459 117.644 33.1081 117.845 33.02C118.053 32.9382 118.229 32.8154 118.374 32.6518C118.519 32.4881 118.645 32.2835 118.752 32.0381L119.724 29.9231ZM120.782 21.0102L121.046 28.4691L120.885 31.3299L119.176 31.5093L118.091 21.0102H120.782Z" fill="white"/>
<defs>
<linearGradient id="paint0_linear_272_616" x1="-0.000928" y1="26.0464" x2="52.0947" y2="26.0464" gradientUnits="userSpaceOnUse">
<stop stop-color="#231F20"/>
<stop offset="1" stop-color="#58595B"/>
</linearGradient>
<linearGradient id="paint1_linear_272_616" x1="54.4668" y1="25.8771" x2="178.676" y2="25.8771" gradientUnits="userSpaceOnUse">
<stop stop-color="#770000"/>
<stop offset="1" stop-color="#FF0000"/>
</linearGradient>
<linearGradient id="paint2_linear_272_616" x1="15.6458" y1="36.8894" x2="15.6458" y2="16.6015" gradientUnits="userSpaceOnUse">
<stop stop-color="#398200"/>
<stop offset="1" stop-color="#5FC52C"/>
</linearGradient>
<linearGradient id="paint3_linear_272_616" x1="26.0405" y1="36.8894" x2="26.0405" y2="16.6015" gradientUnits="userSpaceOnUse">
<stop stop-color="#E6E7E8"/>
<stop offset="1" stop-color="white"/>
</linearGradient>
<linearGradient id="paint4_linear_272_616" x1="36.4346" y1="36.8894" x2="36.4346" y2="16.6015" gradientUnits="userSpaceOnUse">
<stop stop-color="#AD0000"/>
<stop offset="1" stop-color="#FF0000"/>
</linearGradient>
</defs>
</svg>
