<svg width="179" height="53" viewBox="0 0 179 53" fill="none" xmlns="http://www.w3.org/2000/svg">
<path d="M26.0513 0C11.6905 0 0 11.6835 0 26.049C0 40.4098 11.6882 52.0956 26.0513 52.0956C40.4121 52.0956 52.0979 40.4121 52.0979 26.049C52.0979 11.6835 40.4121 0 26.0513 0Z" fill="url(#paint0_linear_272_238)"/>
<path d="M54.4713 12.0198C56.5709 16.2561 57.7842 21.0098 57.7842 26.0488C57.7842 30.9556 56.6312 35.5863 54.636 39.7368H162.801L178.682 12.0198H54.4713Z" fill="url(#paint1_linear_272_238)"/>
<path d="M79.1645 17.4824H81.3738L82.1858 27.3962L86.4346 17.4824H88.7855L82.5163 31.2295H80.6752L79.1645 17.4824ZM77.9088 17.4824H80.1748L78.8529 27.6039L78.2203 31.2295H75.5295L77.9088 17.4824ZM87.6997 17.4824H89.9752L87.5864 31.2295H84.8861L85.5754 27.3584L87.6997 17.4824ZM94.4128 28.8785L95.1681 24.1483C95.187 23.9594 95.1901 23.7706 95.1775 23.5818C95.1712 23.3866 95.1209 23.223 95.0265 23.0908C94.9321 22.9586 94.7684 22.8894 94.5355 22.8831C94.2837 22.8768 94.0823 22.9303 93.9312 23.0436C93.7802 23.1569 93.6637 23.3048 93.5819 23.4873C93.5001 23.6636 93.4403 23.8556 93.4025 24.0633L90.8249 24.0822C90.8564 23.5597 90.9854 23.0971 91.212 22.6942C91.4386 22.2914 91.7345 21.9483 92.0996 21.6651C92.4646 21.3818 92.8769 21.1678 93.3364 21.0231C93.7959 20.8783 94.268 20.8091 94.7527 20.8154C95.4325 20.8279 96.0084 20.9759 96.4805 21.2591C96.9526 21.5424 97.2988 21.9326 97.5191 22.4299C97.7394 22.9271 97.8149 23.5157 97.7457 24.1955L97.0187 28.7558C96.962 29.1272 96.9148 29.5143 96.877 29.9171C96.8393 30.3137 96.8833 30.6945 97.0092 31.0595L96.9903 31.2295L94.4694 31.2389C94.3561 30.855 94.3058 30.4647 94.3183 30.0682C94.3309 29.6653 94.3624 29.2688 94.4128 28.8785ZM95.4041 24.9886L95.1398 26.5748L94.2995 26.5653C94.054 26.5716 93.8274 26.6188 93.6197 26.7069C93.4182 26.7888 93.2357 26.9084 93.072 27.0657C92.9147 27.2168 92.7857 27.393 92.6849 27.5945C92.5905 27.7896 92.5307 28.0099 92.5055 28.2554C92.4804 28.4253 92.4772 28.5921 92.4961 28.7558C92.5213 28.9194 92.5811 29.0579 92.6755 29.1712C92.7762 29.2845 92.9273 29.3443 93.1287 29.3506C93.349 29.3506 93.5662 29.3065 93.7802 29.2184C93.9942 29.124 94.1736 28.9918 94.3183 28.8219C94.4631 28.6519 94.5512 28.4505 94.5827 28.2176L95.0454 29.2751C94.9383 29.5646 94.803 29.8416 94.6394 30.1059C94.482 30.364 94.2932 30.5938 94.0729 30.7952C93.8526 30.9966 93.6071 31.154 93.3364 31.2673C93.0658 31.3869 92.7573 31.4435 92.4111 31.4372C91.8635 31.4309 91.3914 31.2893 90.9949 31.0123C90.6046 30.7291 90.3088 30.364 90.1074 29.9171C89.9122 29.4639 89.8273 28.9729 89.8524 28.4442C89.8839 27.8336 90.0224 27.3112 90.2679 26.8769C90.5197 26.4426 90.847 26.0869 91.2498 25.81C91.6527 25.5267 92.109 25.319 92.6188 25.1868C93.135 25.0484 93.6732 24.9791 94.2334 24.9791L95.4041 24.9886ZM103.684 16.7271L101.164 31.2295H98.5765L101.088 16.7271H103.684ZM107.971 28.8785L108.726 24.1483C108.745 23.9594 108.748 23.7706 108.736 23.5818C108.729 23.3866 108.679 23.223 108.585 23.0908C108.49 22.9586 108.327 22.8894 108.094 22.8831C107.842 22.8768 107.641 22.9303 107.489 23.0436C107.338 23.1569 107.222 23.3048 107.14 23.4873C107.058 23.6636 106.998 23.8556 106.961 24.0633L104.383 24.0822C104.415 23.5597 104.544 23.0971 104.77 22.6942C104.997 22.2914 105.293 21.9483 105.658 21.6651C106.023 21.3818 106.435 21.1678 106.895 21.0231C107.354 20.8783 107.826 20.8091 108.311 20.8154C108.991 20.8279 109.567 20.9759 110.039 21.2591C110.511 21.5424 110.857 21.9326 111.077 22.4299C111.298 22.9271 111.373 23.5157 111.304 24.1955L110.577 28.7558C110.52 29.1272 110.473 29.5143 110.435 29.9171C110.397 30.3137 110.442 30.6945 110.567 31.0595L110.549 31.2295L108.028 31.2389C107.914 30.855 107.864 30.4647 107.877 30.0682C107.889 29.6653 107.921 29.2688 107.971 28.8785ZM108.962 24.9886L108.698 26.5748L107.858 26.5653C107.612 26.5716 107.386 26.6188 107.178 26.7069C106.976 26.7888 106.794 26.9084 106.63 27.0657C106.473 27.2168 106.344 27.393 106.243 27.5945C106.149 27.7896 106.089 28.0099 106.064 28.2554C106.039 28.4253 106.035 28.5921 106.054 28.7558C106.079 28.9194 106.139 29.0579 106.234 29.1712C106.334 29.2845 106.485 29.3443 106.687 29.3506C106.907 29.3506 107.124 29.3065 107.338 29.2184C107.552 29.124 107.732 28.9918 107.877 28.8219C108.021 28.6519 108.109 28.4505 108.141 28.2176L108.604 29.2751C108.497 29.5646 108.361 29.8416 108.198 30.1059C108.04 30.364 107.851 30.5938 107.631 30.7952C107.411 30.9966 107.165 31.154 106.895 31.2673C106.624 31.3869 106.316 31.4435 105.969 31.4372C105.422 31.4309 104.95 31.2893 104.553 31.0123C104.163 30.7291 103.867 30.364 103.666 29.9171C103.47 29.4639 103.385 28.9729 103.411 28.4442C103.442 27.8336 103.581 27.3112 103.826 26.8769C104.078 26.4426 104.405 26.0869 104.808 25.81C105.211 25.5267 105.667 25.319 106.177 25.1868C106.693 25.0484 107.231 24.9791 107.792 24.9791L108.962 24.9886ZM114.523 29.9265L118.102 21.0136H120.925L115.656 32.7685C115.512 33.1147 115.345 33.442 115.156 33.7504C114.967 34.0651 114.75 34.3452 114.505 34.5907C114.259 34.8362 113.976 35.0282 113.655 35.1667C113.334 35.3114 112.969 35.3838 112.56 35.3838C112.358 35.3838 112.163 35.3618 111.974 35.3177C111.785 35.28 111.597 35.2359 111.408 35.1855L111.625 33.1178C111.675 33.1178 111.726 33.121 111.776 33.1273C111.826 33.1399 111.877 33.143 111.927 33.1367C112.204 33.1493 112.443 33.1115 112.645 33.0234C112.852 32.9416 113.029 32.8188 113.173 32.6552C113.318 32.4915 113.444 32.287 113.551 32.0415L114.523 29.9265ZM115.581 21.0136L115.845 28.4725L115.685 31.3334L113.976 31.5127L112.89 21.0136H115.581ZM125.145 28.4253C125.177 28.1798 125.111 27.9721 124.947 27.8022C124.79 27.6322 124.595 27.4875 124.362 27.3679C124.135 27.2483 123.934 27.1444 123.757 27.0563C123.43 26.8926 123.115 26.7164 122.813 26.5275C122.517 26.3387 122.256 26.1247 122.03 25.8855C121.809 25.6463 121.639 25.3725 121.52 25.0641C121.4 24.7494 121.353 24.3874 121.378 23.9783C121.403 23.481 121.523 23.0373 121.737 22.647C121.951 22.2505 122.231 21.9169 122.577 21.6462C122.923 21.3693 123.314 21.1615 123.748 21.0231C124.189 20.8783 124.645 20.8091 125.117 20.8154C125.765 20.8279 126.335 20.9633 126.826 21.2213C127.323 21.4794 127.707 21.8476 127.978 22.326C128.255 22.8044 128.39 23.3709 128.384 24.0255H125.806C125.813 23.8241 125.8 23.629 125.768 23.4401C125.737 23.245 125.661 23.0845 125.542 22.9586C125.422 22.8327 125.233 22.7761 124.975 22.7887C124.774 22.7887 124.591 22.8359 124.428 22.9303C124.27 23.0247 124.138 23.1537 124.031 23.3174C123.924 23.4747 123.852 23.6478 123.814 23.8367C123.783 24.0192 123.811 24.1797 123.899 24.3182C123.987 24.4504 124.107 24.5668 124.258 24.6675C124.409 24.7683 124.566 24.8595 124.73 24.9414C124.9 25.0169 125.045 25.0798 125.164 25.1302C125.643 25.3505 126.074 25.596 126.458 25.8666C126.842 26.1373 127.141 26.4678 127.355 26.858C127.575 27.242 127.663 27.7235 127.619 28.3026C127.6 28.825 127.474 29.2845 127.241 29.6811C127.008 30.0713 126.706 30.3986 126.335 30.663C125.964 30.9211 125.548 31.113 125.089 31.2389C124.635 31.3711 124.167 31.4309 123.682 31.4183C123.027 31.3994 122.445 31.2484 121.935 30.9651C121.432 30.6819 121.038 30.2948 120.755 29.8038C120.472 29.3065 120.333 28.7275 120.34 28.0665L122.794 28.076C122.788 28.3278 122.81 28.5607 122.86 28.7747C122.911 28.9887 123.015 29.1555 123.172 29.2751C123.336 29.3947 123.565 29.4545 123.861 29.4545C124.075 29.4608 124.274 29.423 124.456 29.3412C124.639 29.2593 124.79 29.1429 124.909 28.9918C125.029 28.8408 125.108 28.6519 125.145 28.4253ZM133.227 21.0136L131.452 31.2295H128.865L130.64 21.0136H133.227ZM130.98 18.4077C130.974 17.9986 131.103 17.6555 131.367 17.3786C131.632 17.0953 131.975 16.9506 132.397 16.9443C132.793 16.938 133.124 17.067 133.388 17.3314C133.652 17.5895 133.784 17.9199 133.784 18.3228C133.797 18.7256 133.671 19.0686 133.407 19.3519C133.142 19.6351 132.799 19.7799 132.378 19.7862C131.981 19.7988 131.651 19.6761 131.386 19.418C131.122 19.1536 130.987 18.8169 130.98 18.4077ZM138.26 28.8785L139.015 24.1483C139.034 23.9594 139.037 23.7706 139.025 23.5818C139.018 23.3866 138.968 23.223 138.873 23.0908C138.779 22.9586 138.615 22.8894 138.383 22.8831C138.131 22.8768 137.929 22.9303 137.778 23.0436C137.627 23.1569 137.511 23.3048 137.429 23.4873C137.347 23.6636 137.287 23.8556 137.25 24.0633L134.672 24.0822C134.703 23.5597 134.832 23.0971 135.059 22.6942C135.286 22.2914 135.582 21.9483 135.947 21.6651C136.312 21.3818 136.724 21.1678 137.183 21.0231C137.643 20.8783 138.115 20.8091 138.6 20.8154C139.279 20.8279 139.855 20.9759 140.328 21.2591C140.8 21.5424 141.146 21.9326 141.366 22.4299C141.586 22.9271 141.662 23.5157 141.593 24.1955L140.866 28.7558C140.809 29.1272 140.762 29.5143 140.724 29.9171C140.686 30.3137 140.73 30.6945 140.856 31.0595L140.837 31.2295L138.316 31.2389C138.203 30.855 138.153 30.4647 138.165 30.0682C138.178 29.6653 138.209 29.2688 138.26 28.8785ZM139.251 24.9886L138.987 26.5748L138.146 26.5653C137.901 26.5716 137.674 26.6188 137.467 26.7069C137.265 26.7888 137.083 26.9084 136.919 27.0657C136.762 27.2168 136.633 27.393 136.532 27.5945C136.438 27.7896 136.378 28.0099 136.353 28.2554C136.327 28.4253 136.324 28.5921 136.343 28.7558C136.368 28.9194 136.428 29.0579 136.523 29.1712C136.623 29.2845 136.774 29.3443 136.976 29.3506C137.196 29.3506 137.413 29.3065 137.627 29.2184C137.841 29.124 138.021 28.9918 138.165 28.8219C138.31 28.6519 138.398 28.4505 138.43 28.2176L138.892 29.2751C138.785 29.5646 138.65 29.8416 138.486 30.1059C138.329 30.364 138.14 30.5938 137.92 30.7952C137.7 30.9966 137.454 31.154 137.183 31.2673C136.913 31.3869 136.604 31.4435 136.258 31.4372C135.711 31.4309 135.238 31.2893 134.842 31.0123C134.452 30.7291 134.156 30.364 133.954 29.9171C133.759 29.4639 133.674 28.9729 133.699 28.4442C133.731 27.8336 133.869 27.3112 134.115 26.8769C134.367 26.4426 134.694 26.0869 135.097 25.81C135.5 25.5267 135.956 25.319 136.466 25.1868C136.982 25.0484 137.52 24.9791 138.08 24.9791L139.251 24.9886Z" fill="white"/>
<path d="M41.644 16.1313H10.4957V36.2551H41.644V16.1313Z" fill="url(#paint2_linear_272_238)"/>
<path d="M41.644 34.8186H10.4957V36.2547H41.644V34.8186Z" fill="white"/>
<path d="M41.644 31.9465H10.4957V33.3827H41.644V31.9465Z" fill="white"/>
<path d="M41.644 29.0696H10.4957V30.5056H41.644V29.0696Z" fill="white"/>
<path d="M41.644 26.1951H10.4957V27.6311H41.644V26.1951Z" fill="white"/>
<path d="M41.644 23.3184H10.4957V24.7567H41.644V23.3184Z" fill="white"/>
<path d="M41.644 20.4417H10.4957V21.88H41.644V20.4417Z" fill="white"/>
<path d="M41.644 17.5671H10.4957V19.0055H41.644V17.5671Z" fill="white"/>
<path d="M26.0675 16.1313H10.4957V27.6316H26.0675V16.1313Z" fill="url(#paint3_radial_272_238)"/>
<path d="M16.711 18.0774C14.6044 18.0774 12.8945 19.7826 12.8945 21.8822C12.8945 23.9818 14.6021 25.6847 16.711 25.6847C17.4719 25.6847 18.1795 25.462 18.7757 25.0792C18.4301 25.1975 18.0566 25.2625 17.6691 25.2625C15.8015 25.2625 14.2889 23.7521 14.2889 21.8915C14.2889 20.0309 15.8015 18.5205 17.6691 18.5205C18.0821 18.5205 18.4788 18.5948 18.8431 18.7317C18.2352 18.3187 17.4998 18.0774 16.711 18.0774Z" fill="#FFCC00"/>
<path d="M23.0352 23.8589L21.4298 23.0214L21.9031 24.7358L20.8289 23.3021L20.4926 25.0491L20.1631 23.2998L19.0843 24.7312L19.5623 23.0191L17.9544 23.852L19.1516 22.511L17.3304 22.5806L19.0054 21.8776L17.3327 21.1677L19.1539 21.2443L17.9614 19.8987L19.5669 20.7362L19.0913 19.0194L20.1677 20.4554L20.5041 18.7085L20.8359 20.4554L21.9147 19.0241L21.4344 20.7385L23.0423 19.9056L21.8451 21.2489L23.6663 21.1793L21.9913 21.8823L23.664 22.5899L21.8451 22.5156L23.0352 23.8589Z" fill="#FFCC00"/>
<defs>
<linearGradient id="paint0_linear_272_238" x1="0.00116" y1="26.0469" x2="52.097" y2="26.0469" gradientUnits="userSpaceOnUse">
<stop stop-color="#231F20"/>
<stop offset="1" stop-color="#58595B"/>
</linearGradient>
<linearGradient id="paint1_linear_272_238" x1="54.4713" y1="25.8776" x2="178.68" y2="25.8776" gradientUnits="userSpaceOnUse">
<stop stop-color="#770000"/>
<stop offset="1" stop-color="#FF0000"/>
</linearGradient>
<linearGradient id="paint2_linear_272_238" x1="10.4954" y1="26.1932" x2="41.6433" y2="26.1932" gradientUnits="userSpaceOnUse">
<stop stop-color="#BE0000"/>
<stop offset="1" stop-color="#F60000"/>
</linearGradient>
<radialGradient id="paint3_radial_272_238" cx="0" cy="0" r="1" gradientUnits="userSpaceOnUse" gradientTransform="translate(18.2811 21.8817) scale(6.84401 6.844)">
<stop stop-color="#0056B7"/>
<stop offset="1" stop-color="#062C99"/>
</radialGradient>
</defs>
</svg>
