<svg width="179" height="53" viewBox="0 0 179 53" fill="none" xmlns="http://www.w3.org/2000/svg">
<path d="M26.0513 0C11.6905 0 0 11.6835 0 26.0467C0 40.4098 11.6882 52.0933 26.0513 52.0933C40.4121 52.0933 52.0979 40.4098 52.0979 26.0467C52.0979 11.6835 40.4121 0 26.0513 0Z" fill="url(#paint0_linear_272_12)"/>
<path d="M54.4713 12.0175C56.5709 16.2561 57.7842 21.0075 57.7842 26.0442C57.7842 30.951 56.6312 35.584 54.636 39.7345H162.801L178.682 12.0151L54.4713 12.0175Z" fill="url(#paint1_linear_272_12)"/>
<path d="M101.644 17.479H104.335L102.73 26.9112C102.598 27.8365 102.321 28.6422 101.899 29.3283C101.477 30.0081 100.914 30.5305 100.209 30.8956C99.504 31.2607 98.67 31.4369 97.7069 31.4243C96.8005 31.4055 96.0515 31.2072 95.4598 30.8295C94.8681 30.4456 94.4401 29.92 94.1757 29.2528C93.9177 28.5793 93.8421 27.8019 93.9491 26.9207L95.5542 17.479H98.2357L96.6589 26.9301C96.6148 27.3141 96.6085 27.6697 96.64 27.997C96.6778 28.318 96.7911 28.5856 96.9799 28.7996C97.175 29.0073 97.4961 29.1174 97.943 29.13C98.415 29.1489 98.7959 29.0639 99.0854 28.8751C99.3749 28.6863 99.5921 28.4219 99.7369 28.082C99.8816 27.7358 99.9887 27.3518 100.058 26.9301L101.644 17.479ZM110.293 27.5344C110.33 27.2511 110.321 27.0057 110.264 26.7979C110.208 26.5902 110.11 26.4077 109.972 26.2503C109.839 26.0867 109.676 25.9419 109.481 25.816C109.292 25.6838 109.075 25.5611 108.829 25.4478C108.382 25.2338 107.961 24.9946 107.564 24.7302C107.174 24.4596 106.828 24.1574 106.525 23.8238C106.23 23.4839 106.006 23.1 105.855 22.6719C105.704 22.2439 105.647 21.7592 105.685 21.2179C105.729 20.6011 105.887 20.0472 106.157 19.5562C106.428 19.0652 106.78 18.6498 107.215 18.3099C107.649 17.9637 108.137 17.7056 108.678 17.5357C109.226 17.3594 109.792 17.2776 110.378 17.2902C111.208 17.3091 111.901 17.5074 112.455 17.885C113.015 18.2627 113.43 18.7694 113.701 19.4051C113.978 20.0409 114.101 20.7521 114.069 21.5389L111.378 21.5295C111.404 21.2211 111.388 20.9158 111.331 20.6137C111.281 20.3052 111.164 20.0535 110.982 19.8583C110.799 19.6569 110.513 19.553 110.123 19.5468C109.795 19.5405 109.506 19.6128 109.254 19.7639C109.002 19.915 108.798 20.1164 108.64 20.3682C108.483 20.62 108.382 20.9032 108.338 21.2179C108.307 21.4634 108.332 21.6837 108.414 21.8788C108.502 22.074 108.621 22.2502 108.773 22.4076C108.93 22.5586 109.106 22.6971 109.301 22.823C109.496 22.9426 109.692 23.0465 109.887 23.1346C110.365 23.3675 110.802 23.6193 111.199 23.8899C111.596 24.1543 111.932 24.4596 112.209 24.8058C112.493 25.1457 112.697 25.5391 112.823 25.986C112.955 26.4329 113.002 26.9427 112.965 27.5155C112.914 28.1512 112.76 28.7114 112.502 29.1961C112.25 29.6808 111.917 30.0931 111.501 30.433C111.086 30.7666 110.611 31.0184 110.075 31.1883C109.547 31.3583 108.974 31.4369 108.357 31.4243C107.702 31.4055 107.117 31.2827 106.601 31.0561C106.085 30.8232 105.65 30.5022 105.298 30.0931C104.952 29.6839 104.694 29.2056 104.524 28.6579C104.354 28.1103 104.285 27.5187 104.316 26.8829L107.016 26.8924C106.998 27.1882 107.001 27.4746 107.026 27.7515C107.057 28.0285 107.127 28.274 107.234 28.488C107.347 28.6957 107.511 28.8625 107.725 28.9884C107.939 29.108 108.222 29.1678 108.574 29.1678C108.908 29.1678 109.194 29.0986 109.433 28.9601C109.673 28.8216 109.865 28.6296 110.009 28.3841C110.154 28.1387 110.249 27.8554 110.293 27.5344ZM120.896 20.066L116.128 31.2261H113.201L119.744 17.479H121.594L120.896 20.066ZM121.254 31.2261L120.301 19.8394L120.452 17.479H122.208L124.011 31.2261H121.254ZM122.217 26.0993L121.811 28.3936H115.769L116.175 26.0993H122.217Z" fill="white"/>
<path d="M41.6417 16.1284H10.4586V35.9621H41.6417V16.1284Z" fill="#FEFEFE"/>
<path d="M41.6417 34.468H10.4586V35.9644H41.6417V34.468Z" fill="url(#paint2_linear_272_12)"/>
<path d="M41.6417 31.4099H10.4586V32.9063H41.6417V31.4099Z" fill="url(#paint3_linear_272_12)"/>
<path d="M41.6417 28.3547H10.4586V29.8511H41.6417V28.3547Z" fill="url(#paint4_linear_272_12)"/>
<path d="M41.6417 25.2991H10.4586V26.7955H41.6417V25.2991Z" fill="url(#paint5_linear_272_12)"/>
<path d="M41.644 22.2417H10.4957V23.7381H41.644V22.2417Z" fill="url(#paint6_linear_272_12)"/>
<path d="M41.6417 16.1284H10.4586V17.6248H41.6417V16.1284Z" fill="url(#paint7_linear_272_12)"/>
<path d="M41.6417 19.1863H10.4586V20.6827H41.6417V19.1863Z" fill="url(#paint8_linear_272_12)"/>
<path d="M24.9377 16.1284H10.4586V26.7935H24.9377V16.1284Z" fill="url(#paint9_radial_272_12)"/>
<path fill-rule="evenodd" clip-rule="evenodd" d="M11.6928 16.5413L11.832 16.9681L12.2658 16.9751L11.9179 17.2465L12.0478 17.6757L11.6928 17.4182L11.3355 17.6757L11.4632 17.2465L11.1151 16.9751L11.5513 16.9681L11.6928 16.5413Z" fill="#FEFEFE"/>
<path fill-rule="evenodd" clip-rule="evenodd" d="M12.8923 17.6294L13.0338 18.0563L13.4676 18.0632L13.122 18.3347L13.2472 18.7639L12.8923 18.5064L12.5373 18.7639L12.6649 18.3347L12.3169 18.0632L12.7508 18.0563L12.8923 17.6294Z" fill="#FEFEFE"/>
<path fill-rule="evenodd" clip-rule="evenodd" d="M14.094 18.7173L14.2355 19.1442L14.6717 19.1511L14.3214 19.4226L14.4513 19.8541L14.094 19.5942L13.7367 19.8541L13.8667 19.4226L13.5187 19.1511L13.9525 19.1442L14.094 18.7173Z" fill="#FEFEFE"/>
<path fill-rule="evenodd" clip-rule="evenodd" d="M15.2957 19.8054L15.4373 20.2323L15.8711 20.2393L15.5232 20.5107L15.6531 20.9422L15.2957 20.6824L14.9408 20.9422L15.0684 20.5107L14.7181 20.2393L15.1565 20.2323L15.2957 19.8054Z" fill="#FEFEFE"/>
<path fill-rule="evenodd" clip-rule="evenodd" d="M16.4975 20.8936L16.6367 21.3204L17.0729 21.3274L16.7248 21.5965L16.8525 22.028L16.4975 21.7705L16.1402 22.028L16.2702 21.5965L15.9222 21.3274L16.356 21.3204L16.4975 20.8936Z" fill="#FEFEFE"/>
<path fill-rule="evenodd" clip-rule="evenodd" d="M17.697 21.9817L17.8408 22.4086L18.2746 22.4155L17.929 22.687L18.0566 23.1185L17.697 22.8587L17.342 23.1185L17.472 22.687L17.1239 22.4155L17.5578 22.4086L17.697 21.9817Z" fill="#FEFEFE"/>
<path fill-rule="evenodd" clip-rule="evenodd" d="M18.9011 23.0696L19.0449 23.4965L19.4764 23.5034L19.1284 23.7749L19.2583 24.2064L18.9011 23.9465L18.5461 24.2064L18.6714 23.7749L18.3257 23.5034L18.7596 23.4965L18.9011 23.0696Z" fill="#FEFEFE"/>
<path fill-rule="evenodd" clip-rule="evenodd" d="M20.1051 24.1577L20.2443 24.5846L20.6781 24.5915L20.3302 24.863L20.4577 25.2922L20.1051 25.0347L19.7478 25.2922L19.8754 24.863L19.5251 24.5915L19.9636 24.5846L20.1051 24.1577Z" fill="#FEFEFE"/>
<path fill-rule="evenodd" clip-rule="evenodd" d="M21.3046 25.2458L21.4461 25.6727L21.88 25.6797L21.5343 25.9511L21.6596 26.3826L21.3046 26.1228L20.9473 26.3826L21.0749 25.9511L20.7292 25.6797L21.1631 25.6727L21.3046 25.2458Z" fill="#FEFEFE"/>
<path fill-rule="evenodd" clip-rule="evenodd" d="M11.6928 18.7173L11.832 19.1442L12.2658 19.1511L11.9179 19.4226L12.0478 19.8541L11.6928 19.5942L11.3355 19.8541L11.4632 19.4226L11.1151 19.1511L11.5513 19.1442L11.6928 18.7173Z" fill="#FEFEFE"/>
<path fill-rule="evenodd" clip-rule="evenodd" d="M12.8923 19.8054L13.0338 20.2323L13.4676 20.2393L13.122 20.5107L13.2472 20.9422L12.8923 20.6824L12.5373 20.9422L12.6649 20.5107L12.3169 20.2393L12.7508 20.2323L12.8923 19.8054Z" fill="#FEFEFE"/>
<path fill-rule="evenodd" clip-rule="evenodd" d="M14.094 20.8936L14.2355 21.3204L14.6717 21.3274L14.3214 21.5965L14.4513 22.028L14.094 21.7705L13.7367 22.028L13.8667 21.5965L13.5187 21.3274L13.9525 21.3204L14.094 20.8936Z" fill="#FEFEFE"/>
<path fill-rule="evenodd" clip-rule="evenodd" d="M15.2957 21.9817L15.4373 22.4086L15.8711 22.4155L15.5232 22.687L15.6531 23.1185L15.2957 22.8587L14.9408 23.1185L15.0684 22.687L14.7181 22.4155L15.1565 22.4086L15.2957 21.9817Z" fill="#FEFEFE"/>
<path fill-rule="evenodd" clip-rule="evenodd" d="M16.4975 23.0696L16.6367 23.4965L17.0729 23.5034L16.7248 23.7749L16.8525 24.2064L16.4975 23.9465L16.1402 24.2064L16.2702 23.7749L15.9222 23.5034L16.356 23.4965L16.4975 23.0696Z" fill="#FEFEFE"/>
<path fill-rule="evenodd" clip-rule="evenodd" d="M17.697 24.1577L17.8408 24.5846L18.2746 24.5915L17.929 24.863L18.0566 25.2922L17.697 25.0347L17.342 25.2922L17.472 24.863L17.1239 24.5915L17.5578 24.5846L17.697 24.1577Z" fill="#FEFEFE"/>
<path fill-rule="evenodd" clip-rule="evenodd" d="M18.9011 25.2458L19.0449 25.6727L19.4764 25.6797L19.1284 25.9511L19.2583 26.3826L18.9011 26.1228L18.5461 26.3826L18.6714 25.9511L18.3257 25.6797L18.7596 25.6727L18.9011 25.2458Z" fill="#FEFEFE"/>
<path fill-rule="evenodd" clip-rule="evenodd" d="M11.6928 20.8936L11.832 21.3204L12.2658 21.3274L11.9179 21.5965L12.0478 22.028L11.6928 21.7705L11.3355 22.028L11.4632 21.5965L11.1151 21.3274L11.5513 21.3204L11.6928 20.8936Z" fill="#FEFEFE"/>
<path fill-rule="evenodd" clip-rule="evenodd" d="M12.8923 21.9817L13.0338 22.4086L13.4676 22.4155L13.122 22.687L13.2472 23.1185L12.8923 22.8587L12.5373 23.1185L12.6649 22.687L12.3169 22.4155L12.7508 22.4086L12.8923 21.9817Z" fill="#FEFEFE"/>
<path fill-rule="evenodd" clip-rule="evenodd" d="M14.094 23.0696L14.2355 23.4965L14.6717 23.5034L14.3214 23.7749L14.4513 24.2064L14.094 23.9465L13.7367 24.2064L13.8667 23.7749L13.5187 23.5034L13.9525 23.4965L14.094 23.0696Z" fill="#FEFEFE"/>
<path fill-rule="evenodd" clip-rule="evenodd" d="M15.2957 24.1577L15.4373 24.5846L15.8711 24.5915L15.5232 24.863L15.6531 25.2922L15.2957 25.0347L14.9408 25.2922L15.0684 24.863L14.7181 24.5915L15.1565 24.5846L15.2957 24.1577Z" fill="#FEFEFE"/>
<path fill-rule="evenodd" clip-rule="evenodd" d="M16.4975 25.2458L16.6367 25.6727L17.0729 25.6797L16.7248 25.9511L16.8525 26.3826L16.4975 26.1228L16.1402 26.3826L16.2702 25.9511L15.9222 25.6797L16.356 25.6727L16.4975 25.2458Z" fill="#FEFEFE"/>
<path fill-rule="evenodd" clip-rule="evenodd" d="M11.6928 23.0696L11.832 23.4965L12.2658 23.5034L11.9179 23.7749L12.0478 24.2064L11.6928 23.9465L11.3355 24.2064L11.4632 23.7749L11.1151 23.5034L11.5513 23.4965L11.6928 23.0696Z" fill="#FEFEFE"/>
<path fill-rule="evenodd" clip-rule="evenodd" d="M12.8923 24.1577L13.0338 24.5846L13.4676 24.5915L13.122 24.863L13.2472 25.2922L12.8923 25.0347L12.5373 25.2922L12.6649 24.863L12.3169 24.5915L12.7508 24.5846L12.8923 24.1577Z" fill="#FEFEFE"/>
<path fill-rule="evenodd" clip-rule="evenodd" d="M14.094 25.2458L14.2355 25.6727L14.6717 25.6797L14.3214 25.9511L14.4513 26.3826L14.094 26.1228L13.7367 26.3826L13.8667 25.9511L13.5187 25.6797L13.9525 25.6727L14.094 25.2458Z" fill="#FEFEFE"/>
<path fill-rule="evenodd" clip-rule="evenodd" d="M11.6928 25.2458L11.832 25.6727L12.2658 25.6797L11.9179 25.9511L12.0478 26.3826L11.6928 26.1228L11.3355 26.3826L11.4632 25.9511L11.1151 25.6797L11.5513 25.6727L11.6928 25.2458Z" fill="#FEFEFE"/>
<path fill-rule="evenodd" clip-rule="evenodd" d="M14.094 16.5413L14.2355 16.9681L14.6717 16.9751L14.3214 17.2465L14.4513 17.6757L14.094 17.4182L13.7367 17.6757L13.8667 17.2465L13.5187 16.9751L13.9525 16.9681L14.094 16.5413Z" fill="#FEFEFE"/>
<path fill-rule="evenodd" clip-rule="evenodd" d="M15.2957 17.6294L15.4373 18.0563L15.8711 18.0632L15.5232 18.3347L15.6531 18.7639L15.2957 18.5064L14.9408 18.7639L15.0684 18.3347L14.7181 18.0632L15.1565 18.0563L15.2957 17.6294Z" fill="#FEFEFE"/>
<path fill-rule="evenodd" clip-rule="evenodd" d="M16.4975 18.7173L16.6367 19.1442L17.0729 19.1511L16.7248 19.4226L16.8525 19.8541L16.4975 19.5942L16.1402 19.8541L16.2702 19.4226L15.9222 19.1511L16.356 19.1442L16.4975 18.7173Z" fill="#FEFEFE"/>
<path fill-rule="evenodd" clip-rule="evenodd" d="M17.697 19.8054L17.8408 20.2323L18.2746 20.2393L17.929 20.5107L18.0566 20.9422L17.697 20.6824L17.342 20.9422L17.472 20.5107L17.1239 20.2393L17.5578 20.2323L17.697 19.8054Z" fill="#FEFEFE"/>
<path fill-rule="evenodd" clip-rule="evenodd" d="M18.9011 20.8936L19.0449 21.3204L19.4764 21.3274L19.1284 21.5965L19.2583 22.028L18.9011 21.7705L18.5461 22.028L18.6714 21.5965L18.3257 21.3274L18.7596 21.3204L18.9011 20.8936Z" fill="#FEFEFE"/>
<path fill-rule="evenodd" clip-rule="evenodd" d="M20.1051 21.9817L20.2443 22.4086L20.6781 22.4155L20.3302 22.687L20.4577 23.1185L20.1051 22.8587L19.7478 23.1185L19.8754 22.687L19.5251 22.4155L19.9636 22.4086L20.1051 21.9817Z" fill="#FEFEFE"/>
<path fill-rule="evenodd" clip-rule="evenodd" d="M21.3046 23.0696L21.4461 23.4965L21.88 23.5034L21.5343 23.7749L21.6596 24.2064L21.3046 23.9465L20.9473 24.2064L21.0749 23.7749L20.7292 23.5034L21.1631 23.4965L21.3046 23.0696Z" fill="#FEFEFE"/>
<path fill-rule="evenodd" clip-rule="evenodd" d="M22.5063 24.1577L22.6478 24.5846L23.0817 24.5915L22.7337 24.863L22.8636 25.2922L22.5063 25.0347L22.149 25.2922L22.2766 24.863L21.931 24.5915L22.3648 24.5846L22.5063 24.1577Z" fill="#FEFEFE"/>
<path fill-rule="evenodd" clip-rule="evenodd" d="M23.7081 25.2458L23.8496 25.6727L24.2835 25.6797L23.9354 25.9511L24.0631 26.3826L23.7081 26.1228L23.3532 26.3826L23.4808 25.9511L23.1304 25.6797L23.5689 25.6727L23.7081 25.2458Z" fill="#FEFEFE"/>
<path fill-rule="evenodd" clip-rule="evenodd" d="M16.4975 16.5413L16.6367 16.9681L17.0729 16.9751L16.7248 17.2465L16.8525 17.6757L16.4975 17.4182L16.1402 17.6757L16.2702 17.2465L15.9222 16.9751L16.356 16.9681L16.4975 16.5413Z" fill="#FEFEFE"/>
<path fill-rule="evenodd" clip-rule="evenodd" d="M17.697 17.6294L17.8408 18.0563L18.2746 18.0632L17.929 18.3347L18.0566 18.7639L17.697 18.5064L17.342 18.7639L17.472 18.3347L17.1239 18.0632L17.5578 18.0563L17.697 17.6294Z" fill="#FEFEFE"/>
<path fill-rule="evenodd" clip-rule="evenodd" d="M18.9011 18.7173L19.0449 19.1442L19.4764 19.1511L19.1284 19.4226L19.2583 19.8541L18.9011 19.5942L18.5461 19.8541L18.6714 19.4226L18.3257 19.1511L18.7596 19.1442L18.9011 18.7173Z" fill="#FEFEFE"/>
<path fill-rule="evenodd" clip-rule="evenodd" d="M20.1051 19.8054L20.2443 20.2323L20.6781 20.2393L20.3302 20.5107L20.4577 20.9422L20.1051 20.6824L19.7478 20.9422L19.8754 20.5107L19.5251 20.2393L19.9636 20.2323L20.1051 19.8054Z" fill="#FEFEFE"/>
<path fill-rule="evenodd" clip-rule="evenodd" d="M21.3046 20.8936L21.4461 21.3204L21.88 21.3274L21.5343 21.5965L21.6596 22.028L21.3046 21.7705L20.9473 22.028L21.0749 21.5965L20.7292 21.3274L21.1631 21.3204L21.3046 20.8936Z" fill="#FEFEFE"/>
<path fill-rule="evenodd" clip-rule="evenodd" d="M22.5063 21.9817L22.6478 22.4086L23.0817 22.4155L22.7337 22.687L22.8636 23.1185L22.5063 22.8587L22.149 23.1185L22.2766 22.687L21.931 22.4155L22.3648 22.4086L22.5063 21.9817Z" fill="#FEFEFE"/>
<path fill-rule="evenodd" clip-rule="evenodd" d="M23.7081 23.0696L23.8496 23.4965L24.2835 23.5034L23.9354 23.7749L24.0631 24.2064L23.7081 23.9465L23.3532 24.2064L23.4808 23.7749L23.1304 23.5034L23.5689 23.4965L23.7081 23.0696Z" fill="#FEFEFE"/>
<path fill-rule="evenodd" clip-rule="evenodd" d="M18.9011 16.5413L19.0449 16.9681L19.4764 16.9751L19.1284 17.2465L19.2583 17.6757L18.9011 17.4182L18.5461 17.6757L18.6714 17.2465L18.3257 16.9751L18.7596 16.9681L18.9011 16.5413Z" fill="#FEFEFE"/>
<path fill-rule="evenodd" clip-rule="evenodd" d="M20.1051 17.6294L20.2443 18.0563L20.6781 18.0632L20.3302 18.3347L20.4577 18.7639L20.1051 18.5064L19.7478 18.7639L19.8754 18.3347L19.5251 18.0632L19.9636 18.0563L20.1051 17.6294Z" fill="#FEFEFE"/>
<path fill-rule="evenodd" clip-rule="evenodd" d="M21.3046 18.7173L21.4461 19.1442L21.88 19.1511L21.5343 19.4226L21.6596 19.8541L21.3046 19.5942L20.9473 19.8541L21.0749 19.4226L20.7292 19.1511L21.1631 19.1442L21.3046 18.7173Z" fill="#FEFEFE"/>
<path fill-rule="evenodd" clip-rule="evenodd" d="M22.5063 19.8054L22.6478 20.2323L23.0817 20.2393L22.7337 20.5107L22.8636 20.9422L22.5063 20.6824L22.149 20.9422L22.2766 20.5107L21.931 20.2393L22.3648 20.2323L22.5063 19.8054Z" fill="#FEFEFE"/>
<path fill-rule="evenodd" clip-rule="evenodd" d="M23.7081 20.8936L23.8496 21.3204L24.2835 21.3274L23.9354 21.5965L24.0631 22.028L23.7081 21.7705L23.3532 22.028L23.4808 21.5965L23.1304 21.3274L23.5689 21.3204L23.7081 20.8936Z" fill="#FEFEFE"/>
<path fill-rule="evenodd" clip-rule="evenodd" d="M21.3046 16.5413L21.4461 16.9681L21.88 16.9751L21.5343 17.2465L21.6596 17.6757L21.3046 17.4182L20.9473 17.6757L21.0749 17.2465L20.7292 16.9751L21.1631 16.9681L21.3046 16.5413Z" fill="#FEFEFE"/>
<path fill-rule="evenodd" clip-rule="evenodd" d="M22.5063 17.6294L22.6478 18.0563L23.0817 18.0632L22.7337 18.3347L22.8636 18.7639L22.5063 18.5064L22.149 18.7639L22.2766 18.3347L21.931 18.0632L22.3648 18.0563L22.5063 17.6294Z" fill="#FEFEFE"/>
<path fill-rule="evenodd" clip-rule="evenodd" d="M23.7081 18.7173L23.8496 19.1442L24.2835 19.1511L23.9354 19.4226L24.0631 19.8541L23.7081 19.5942L23.3532 19.8541L23.4808 19.4226L23.1304 19.1511L23.5689 19.1442L23.7081 18.7173Z" fill="#FEFEFE"/>
<path fill-rule="evenodd" clip-rule="evenodd" d="M23.7081 16.5413L23.8496 16.9681L24.2835 16.9751L23.9354 17.2465L24.0631 17.6757L23.7081 17.4182L23.3532 17.6757L23.4808 17.2465L23.1304 16.9751L23.5689 16.9681L23.7081 16.5413Z" fill="#FEFEFE"/>
<defs>
<linearGradient id="paint0_linear_272_12" x1="0.00116" y1="26.0464" x2="52.097" y2="26.0464" gradientUnits="userSpaceOnUse">
<stop stop-color="#231F20"/>
<stop offset="1" stop-color="#58595B"/>
</linearGradient>
<linearGradient id="paint1_linear_272_12" x1="54.4713" y1="25.8771" x2="178.68" y2="25.8771" gradientUnits="userSpaceOnUse">
<stop stop-color="#770000"/>
<stop offset="1" stop-color="#FF0000"/>
</linearGradient>
<linearGradient id="paint2_linear_272_12" x1="10.4593" y1="35.2153" x2="41.6433" y2="35.2153" gradientUnits="userSpaceOnUse">
<stop stop-color="#BE0000"/>
<stop offset="1" stop-color="#F60000"/>
</linearGradient>
<linearGradient id="paint3_linear_272_12" x1="10.4593" y1="32.1581" x2="41.6433" y2="32.1581" gradientUnits="userSpaceOnUse">
<stop stop-color="#BE0000"/>
<stop offset="1" stop-color="#F60000"/>
</linearGradient>
<linearGradient id="paint4_linear_272_12" x1="10.4593" y1="29.1025" x2="41.6433" y2="29.1025" gradientUnits="userSpaceOnUse">
<stop stop-color="#BE0000"/>
<stop offset="1" stop-color="#F60000"/>
</linearGradient>
<linearGradient id="paint5_linear_272_12" x1="10.4593" y1="26.0466" x2="41.6433" y2="26.0466" gradientUnits="userSpaceOnUse">
<stop stop-color="#BE0000"/>
<stop offset="1" stop-color="#F60000"/>
</linearGradient>
<linearGradient id="paint6_linear_272_12" x1="10.4954" y1="22.9901" x2="41.6433" y2="22.9901" gradientUnits="userSpaceOnUse">
<stop stop-color="#BE0000"/>
<stop offset="1" stop-color="#F60000"/>
</linearGradient>
<linearGradient id="paint7_linear_272_12" x1="10.4593" y1="16.8773" x2="41.6433" y2="16.8773" gradientUnits="userSpaceOnUse">
<stop stop-color="#BE0000"/>
<stop offset="1" stop-color="#F60000"/>
</linearGradient>
<linearGradient id="paint8_linear_272_12" x1="10.4593" y1="19.9342" x2="41.6433" y2="19.9342" gradientUnits="userSpaceOnUse">
<stop stop-color="#BE0000"/>
<stop offset="1" stop-color="#F60000"/>
</linearGradient>
<radialGradient id="paint9_radial_272_12" cx="0" cy="0" r="1" gradientUnits="userSpaceOnUse" gradientTransform="translate(17.699 21.4623) scale(6.28024 6.5101)">
<stop stop-color="#0056B7"/>
<stop offset="1" stop-color="#062C99"/>
</radialGradient>
</defs>
</svg>
